<?xml version="1.0" standalone="no"?>
<!DOCTYPE svg PUBLIC "-//W3C//DTD SVG 20010904//EN"
 "http://www.w3.org/TR/2001/REC-SVG-20010904/DTD/svg10.dtd">
<svg version="1.0" xmlns="http://www.w3.org/2000/svg"
 width="960.000000pt" height="1280.000000pt" viewBox="0 0 960.000000 1280.000000"
 preserveAspectRatio="xMidYMid meet">

<g transform="translate(0.000000,1280.000000) scale(0.100000,-0.100000)"
fill="#000000" stroke="none">
<path d="M0 6400 l0 -6400 4800 0 4800 0 0 6400 0 6400 -4800 0 -4800 0 0
-6400z m2496 4355 c-2 -19 1 -32 5 -29 8 5 13 -10 10 -28 0 -5 4 -8 9 -8 6 0
27 -25 46 -57 49 -75 75 -96 163 -134 87 -36 172 -55 301 -67 89 -8 93 -9 65
-21 -36 -15 -161 -7 -238 16 -83 24 -192 82 -246 130 -79 69 -151 166 -151
200 0 34 7 44 25 37 8 -4 12 -18 11 -39z m555 14 c14 -7 18 -14 10 -18 -8 -5
-7 -13 4 -27 25 -33 17 -35 -27 -7 -59 37 -78 54 -73 64 7 10 58 3 86 -12z
m-110 -19 c13 -10 18 -19 12 -20 -7 0 -13 5 -13 11 0 7 -12 10 -30 7 -18 -3
-35 1 -41 9 -19 22 45 16 72 -7z m-641 -50 c11 -21 20 -55 20 -75 l0 -35 55 0
c50 0 60 -4 89 -32 39 -38 61 -104 51 -157 -3 -20 -31 -97 -61 -172 -30 -75
-54 -142 -54 -148 0 -6 12 -11 26 -11 14 0 23 -4 19 -10 -3 -5 1 -10 10 -10 9
0 23 -7 31 -15 9 -8 11 -15 5 -15 -6 0 -11 -4 -11 -9 0 -5 9 -7 21 -4 12 3 24
0 29 -6 8 -14 56 -22 78 -14 7 3 11 12 8 20 -5 11 -2 11 16 2 18 -10 24 -8 35
7 32 42 35 54 16 60 -75 24 -96 40 -106 83 -3 13 0 36 8 51 30 59 137 43 220
-33 30 -27 34 -131 6 -183 -30 -57 -60 -85 -123 -119 -31 -16 -56 -31 -54 -32
1 -2 27 -5 57 -8 53 -6 146 -33 204 -60 60 -28 145 -133 145 -181 0 -43 -45
-78 -94 -72 -33 4 -33 3 -19 -19 17 -26 28 -30 19 -7 -3 8 -2 12 4 9 6 -3 10
-12 10 -19 0 -7 10 -21 21 -32 20 -18 44 -61 41 -75 -2 -11 116 -57 128 -49
14 8 79 -15 130 -47 43 -26 94 -39 188 -48 68 -6 77 -4 142 26 82 38 99 65 79
126 -20 62 -50 94 -118 125 -35 16 -65 28 -66 26 -7 -7 8 -58 16 -58 18 0 8
-21 -22 -51 -26 -25 -37 -30 -72 -27 -39 3 -44 6 -66 52 -22 45 -23 51 -10 75
12 21 26 28 76 36 l61 10 -59 65 c-83 91 -111 134 -138 216 -31 91 -26 193 13
281 37 81 79 109 160 106 77 -2 132 -22 204 -73 32 -22 62 -40 68 -40 6 0 20
-9 33 -21 12 -12 24 -19 26 -17 18 17 -223 182 -284 194 -13 3 -30 12 -39 21
-14 14 -12 15 29 7 24 -4 78 -8 119 -8 69 -1 79 -4 112 -31 20 -17 78 -82 127
-145 118 -149 120 -160 13 -83 l-66 47 24 -34 24 -34 -23 16 c-13 9 -29 14
-36 12 -7 -3 -36 16 -64 42 -29 26 -64 55 -79 64 -63 38 -126 30 -155 -20 -18
-30 -11 -51 54 -160 85 -144 37 -235 -110 -208 -24 4 -47 6 -49 3 -9 -9 70
-118 118 -162 27 -25 66 -54 87 -65 54 -29 77 -52 107 -111 28 -57 31 -79 16
-124 -10 -28 -28 -41 -124 -91 -55 -28 -315 -3 -388 38 -29 16 -31 12 -8 -20
20 -29 49 -44 34 -17 -5 8 -2 8 9 -2 9 -7 17 -20 17 -27 0 -8 3 -13 8 -13 4 1
12 0 17 -1 65 -15 284 -22 335 -11 54 12 160 83 181 122 6 11 28 36 50 56 21
19 39 41 39 49 0 7 12 39 28 70 20 42 24 58 14 61 -18 7 -38 52 -46 104 l-7
46 53 8 c29 4 66 8 83 8 16 0 35 6 40 14 10 13 13 13 24 -1 16 -19 20 -46 22
-135 2 -76 -14 -96 -68 -86 -30 5 -33 3 -33 -17 0 -21 8 -25 85 -42 86 -19
188 -26 201 -14 4 4 -1 23 -10 42 -27 58 -14 100 25 75 8 -5 25 -9 39 -9 37
-1 56 -20 79 -79 30 -75 29 -83 -16 -76 -30 5 -34 4 -20 -5 38 -24 14 -28 -30
-4 -40 21 -56 24 -93 19 l-44 -7 63 -35 c35 -20 89 -60 121 -90 32 -29 60 -53
63 -53 2 0 7 9 10 20 3 11 12 20 21 20 26 0 92 -37 172 -96 40 -30 78 -54 83
-54 23 0 9 21 -31 46 -54 33 -125 101 -144 137 -34 64 21 17 239 -204 227
-230 228 -231 208 -250 -19 -18 -26 -18 -90 -7 -54 9 -68 15 -63 26 4 11 1 13
-8 7 -8 -5 -11 -3 -8 6 3 8 16 16 29 19 31 7 67 30 54 36 -26 12 -37 22 -39
39 -2 11 -9 21 -17 23 -11 3 -11 1 1 -8 13 -10 13 -11 0 -7 -8 2 -15 10 -14
18 1 9 -11 15 -29 16 -117 9 -235 68 -347 174 -75 71 -172 140 -242 171 -54
25 -182 49 -225 42 -59 -9 -103 -37 -178 -113 -38 -39 -77 -71 -87 -71 -10 0
-18 -4 -18 -9 0 -11 -79 -41 -109 -41 -13 0 -41 -5 -62 -11 l-38 -12 67 -48
c37 -27 76 -49 87 -49 11 0 52 -11 90 -24 68 -22 70 -22 83 -4 7 10 19 18 25
18 7 0 30 9 52 20 49 25 133 26 178 3 18 -9 61 -42 97 -73 90 -79 109 -90 152
-90 27 0 41 6 52 22 40 56 2 147 -105 255 -60 60 -107 85 -151 81 -34 -3 -52
-28 -20 -28 29 0 44 -24 40 -64 l-3 -35 -42 19 c-64 28 -88 106 -47 148 22 21
83 15 116 -13 16 -13 46 -29 67 -35 28 -7 59 -31 114 -89 42 -44 83 -94 92
-112 21 -39 31 -119 16 -119 -6 0 -11 -8 -11 -18 0 -10 -23 -33 -55 -55 -46
-31 -67 -38 -126 -43 -38 -4 -66 -10 -62 -15 4 -4 37 -17 72 -28 84 -27 173
-27 247 0 88 33 170 47 221 38 30 -6 50 -5 63 4 16 10 29 8 68 -7 26 -11 64
-19 85 -19 20 1 37 -2 37 -6 0 -4 16 -13 35 -20 19 -7 33 -16 30 -21 -3 -4 3
-6 13 -3 20 5 92 -55 92 -76 0 -16 -20 -14 -26 4 -4 8 -10 13 -14 10 -4 -2
-20 7 -34 20 -15 14 -31 25 -35 25 -5 0 -14 7 -21 15 -7 8 -16 12 -21 9 -5 -3
-11 1 -14 8 -3 8 -14 14 -25 15 -14 1 -1 -20 52 -85 39 -48 80 -102 91 -119
10 -18 24 -33 29 -33 6 0 50 -38 97 -83 58 -56 109 -94 153 -116 36 -18 78
-46 94 -62 l28 -29 -27 0 c-66 0 -175 85 -305 235 -24 28 -40 41 -36 30 4 -11
10 -44 12 -73 4 -50 2 -55 -33 -88 -41 -39 -94 -64 -134 -64 -43 0 -156 49
-200 87 -48 41 -101 126 -101 163 0 14 9 40 20 58 16 26 26 32 55 32 47 0 97
-22 147 -65 32 -27 42 -42 44 -71 1 -19 4 -38 7 -41 12 -12 27 10 27 39 0 26
-15 47 -91 122 -50 50 -100 108 -110 128 -30 59 -100 64 -204 13 -90 -43 -201
-68 -280 -62 -77 6 -184 40 -257 82 -27 15 -53 25 -59 23 -17 -6 80 -107 125
-130 22 -11 55 -31 71 -43 17 -12 62 -37 100 -55 71 -34 77 -39 278 -249 37
-39 66 -75 63 -80 -3 -4 -49 -7 -103 -5 -83 2 -113 8 -195 38 -54 19 -108 40
-120 47 -31 16 -158 120 -158 129 0 4 -18 20 -40 35 -39 27 -55 53 -26 42 10
-4 5 11 -13 41 -15 26 -47 84 -70 129 -24 45 -50 85 -59 88 -10 3 -24 20 -32
38 -8 17 -21 31 -27 30 -7 -2 -10 4 -7 12 4 9 -3 16 -20 21 -14 3 -24 10 -21
14 3 5 -27 31 -67 59 -40 27 -91 63 -113 80 -57 42 -135 84 -142 77 -4 -3 0
-6 7 -6 23 0 241 -222 286 -293 24 -37 44 -72 44 -77 0 -6 4 -10 8 -10 4 0 13
-15 20 -34 7 -18 23 -45 36 -59 26 -28 66 -105 66 -128 0 -8 5 -20 12 -27 9
-9 9 -12 0 -12 -39 0 15 -56 86 -89 29 -14 52 -29 52 -34 0 -5 -11 -2 -24 6
-23 15 -24 15 -19 -4 3 -11 24 -33 47 -47 22 -15 43 -30 44 -34 2 -5 7 -8 11
-8 3 0 33 -25 65 -55 87 -83 221 -150 336 -169 51 -9 135 19 178 59 33 29 37
39 36 78 -1 30 -12 67 -37 115 -40 77 -45 102 -21 102 17 0 78 -62 99 -101 26
-49 36 -117 24 -162 -17 -63 -42 -91 -118 -131 -60 -31 -78 -36 -139 -36 -39
0 -72 -3 -75 -7 -2 -5 -2 -2 0 6 2 9 -3 12 -17 8 -11 -3 -20 -2 -20 3 0 12
-63 21 -74 10 -6 -6 -4 -12 7 -16 9 -3 17 -10 17 -16 0 -5 -11 -1 -24 9 -16
12 -20 20 -12 26 8 5 7 10 -4 17 -19 13 -33 13 -25 0 3 -5 1 -10 -5 -10 -6 0
-8 -5 -4 -12 5 -8 2 -9 -9 -5 -12 5 -17 1 -17 -13 0 -11 -5 -20 -12 -20 -6 0
-8 -3 -5 -6 4 -4 14 -1 24 7 15 12 16 12 10 -4 -4 -11 -3 -16 3 -12 6 3 10 13
10 21 0 9 7 14 17 12 10 -2 18 -12 18 -22 0 -11 7 -21 15 -23 13 -4 13 -3 0 6
-8 6 -10 11 -4 11 5 0 19 -7 30 -15 13 -10 14 -13 3 -10 -9 3 -22 -1 -29 -11
-12 -14 -12 -16 5 -13 11 2 29 0 40 -3 11 -4 37 -9 58 -13 31 -5 37 -3 32 7
-6 10 -5 11 6 1 23 -22 100 -15 157 13 66 33 106 80 160 187 39 78 105 157
132 157 12 0 13 -17 1 -24 -12 -8 -44 -70 -82 -162 -44 -107 -75 -152 -123
-177 -79 -41 -185 -72 -236 -69 -23 1 -24 0 -7 -12 16 -13 14 -14 -20 -13 -21
0 -30 2 -20 4 9 3 17 9 17 15 0 10 -36 7 -74 -8 -13 -5 -17 -4 -12 4 3 6 2 13
-3 16 -5 3 -12 -1 -15 -9 -4 -11 3 -19 21 -26 20 -7 29 -7 31 1 3 8 8 8 18 0
18 -16 116 -8 240 18 147 31 244 12 288 -55 17 -26 46 -42 131 -70 45 -14 139
-16 184 -2 65 19 83 47 89 132 l4 73 -50 58 c-47 56 -123 116 -146 116 -6 0 2
-11 19 -24 25 -20 27 -26 16 -39 -7 -9 -11 -26 -9 -39 2 -17 -1 -22 -13 -20
-9 1 -19 -4 -23 -13 -14 -38 -121 7 -151 64 -30 60 -14 99 53 122 46 16 123
-4 200 -52 79 -50 124 -98 163 -176 26 -51 30 -69 25 -105 -3 -24 -8 -56 -10
-72 -2 -15 -9 -33 -16 -40 -6 -6 -10 -6 -8 -1 3 10 -4 15 -23 15 -6 0 -9 -6
-6 -14 18 -45 -97 -127 -213 -151 -36 -8 -86 -22 -110 -30 -34 -12 -76 -16
-173 -14 -108 3 -152 9 -271 39 -79 19 -150 41 -160 49 -13 11 -16 11 -16 0 0
-9 -3 -10 -8 -3 -4 6 -16 14 -27 18 -14 6 -16 10 -7 13 9 4 6 10 -10 21 -13 9
-25 17 -28 17 -28 4 -51 19 -46 31 3 9 1 12 -4 9 -6 -3 -10 2 -11 12 0 10 -3
13 -6 6 -3 -10 -10 -10 -24 -2 -11 5 -17 14 -14 20 4 5 2 9 -4 9 -5 0 -18 3
-28 6 -11 3 -8 -2 10 -16 15 -12 25 -26 21 -31 -3 -5 5 -9 18 -9 18 0 20 -2 8
-10 -11 -7 -11 -10 -2 -10 7 0 11 -4 8 -9 -3 -4 7 -6 22 -4 20 2 22 1 9 -5
-17 -7 -16 -11 11 -41 24 -27 34 -33 54 -28 18 5 30 2 39 -11 13 -15 12 -16
-3 -3 -13 9 -18 10 -18 2 0 -7 -4 -9 -10 -6 -18 11 -11 -1 12 -21 12 -10 18
-13 14 -6 -4 6 -2 12 3 12 6 0 11 -7 11 -15 0 -8 9 -19 20 -25 19 -10 24 -6
21 13 -1 5 3 6 9 2 6 -3 8 -10 5 -15 -6 -10 23 -35 31 -27 4 3 13 0 21 -8 8
-8 29 -16 46 -16 56 -3 62 -4 72 -10 11 -7 213 4 385 20 63 6 188 13 278 15
152 4 169 3 250 -21 48 -13 109 -37 136 -51 63 -34 136 -109 171 -175 35 -65
76 -110 140 -152 108 -71 124 -101 48 -93 -62 7 -212 66 -332 132 -117 63
-200 137 -236 212 -15 30 -35 58 -44 61 -9 3 -38 13 -66 24 -47 18 -56 18
-157 4 -59 -7 -116 -18 -126 -24 -28 -15 -164 -26 -330 -26 -83 0 -152 -3
-152 -7 0 -10 90 -13 235 -9 280 7 479 -111 537 -318 31 -112 25 -156 -32
-268 -53 -102 -72 -133 -85 -133 -4 0 -5 11 -3 25 3 14 1 25 -3 25 -5 0 -9 22
-9 48 0 77 -36 137 -125 206 -146 114 -178 179 -151 304 9 39 24 36 -244 37
-175 0 -190 1 -275 29 -111 35 -144 49 -203 89 -53 35 -162 143 -162 161 0 7
-20 11 -53 11 -42 1 -61 7 -97 32 -25 17 -63 40 -86 52 -47 24 -121 107 -155
171 -16 32 -23 62 -23 105 -1 83 6 126 21 132 6 3 9 12 6 20 -5 13 -2 15 15
11 17 -5 22 -2 22 12 0 11 4 21 9 24 14 9 20 69 9 90 -7 12 -6 22 1 29 18 18
14 50 -5 43 -17 -6 -54 19 -54 36 0 5 10 0 22 -11 16 -16 25 -18 35 -9 7 6 11
13 8 17 -3 3 -10 -1 -14 -8 -7 -11 -10 -11 -17 0 -10 17 -12 59 -2 65 5 3 6
10 3 15 -8 12 2 11 26 -1 13 -7 19 -7 19 0 0 5 -7 10 -15 10 -8 0 -15 5 -15
11 0 8 -4 8 -12 1 -11 -8 -28 -9 -69 -3 -3 1 -3 16 -1 34 6 43 -4 32 -11 -13
-30 -188 -26 -174 -87 -283 -31 -55 -117 -124 -167 -133 -60 -11 -179 1 -210
22 -15 10 -31 19 -35 20 -5 1 -10 3 -13 4 -3 1 -8 3 -12 4 -22 4 -77 66 -94
106 -11 25 -24 53 -30 63 -11 20 -10 22 35 88 47 71 114 106 167 87 31 -11 83
-77 94 -119 21 -85 -89 -136 -173 -81 -14 9 -19 19 -14 26 5 6 10 18 10 26 0
8 4 25 7 38 6 19 4 21 -11 16 -39 -14 -54 -36 -54 -80 0 -51 29 -86 94 -114
107 -47 199 -31 283 47 57 54 69 86 48 126 -14 28 -8 36 13 15 9 -9 12 -9 12
0 0 7 -4 12 -10 12 -5 0 -10 9 -10 19 0 31 -41 56 -152 91 -158 51 -219 83
-261 138 -51 68 -56 86 -58 227 -1 116 -3 128 -26 162 -14 20 -35 45 -48 55
-13 10 -27 27 -30 38 -7 22 -92 76 -102 66 -4 -3 0 -12 9 -19 17 -13 31 -47
20 -47 -4 0 -15 14 -24 30 -18 32 -45 42 -34 13 4 -9 16 -80 27 -157 10 -78
23 -148 28 -156 5 -9 14 -47 20 -85 14 -82 3 -178 -26 -246 -11 -24 -26 -60
-33 -79 -8 -19 -16 -37 -19 -40 -3 -3 -17 -25 -30 -50 -26 -47 -98 -130 -114
-130 -12 0 -62 -40 -51 -40 5 -1 -5 -9 -22 -18 -17 -9 -52 -36 -78 -58 -41
-37 -46 -46 -46 -83 0 -41 31 -130 55 -161 7 -8 18 -33 25 -55 18 -58 19 -58
56 -25 19 16 45 30 58 30 13 0 41 7 62 16 62 26 148 15 229 -30 37 -22 64 -32
63 -24 -2 7 -12 15 -23 18 -30 9 -29 31 2 66 16 17 37 43 48 57 20 28 107 67
147 67 19 0 18 -3 -11 -24 -52 -39 -81 -85 -81 -130 -1 -42 -18 -76 -39 -76
-18 0 -13 -13 22 -52 55 -63 84 -134 90 -216 3 -60 1 -77 -14 -96 -13 -17 -25
-22 -44 -19 -31 7 -51 66 -35 108 26 69 5 161 -50 215 -35 35 -45 38 -31 11
27 -49 33 -228 11 -296 -15 -46 -52 -85 -81 -85 -27 0 -24 20 14 92 30 59 32
70 32 163 0 91 -3 104 -26 140 -46 71 -105 106 -176 104 l-48 -2 45 -6 c99
-15 137 -64 165 -216 6 -32 -23 -99 -53 -122 -75 -59 -230 76 -192 167 10 23
19 30 40 30 15 0 33 -7 40 -15 11 -13 8 -15 -14 -15 -22 0 -26 -4 -26 -29 0
-17 11 -43 26 -61 23 -27 32 -31 67 -28 37 3 42 6 51 35 9 33 -8 123 -24 123
-4 0 -11 11 -14 24 -9 37 -68 68 -131 70 -44 1 -58 -3 -80 -24 -39 -36 -44
-50 -35 -98 4 -26 2 -79 -7 -138 -13 -85 -12 -98 1 -120 20 -29 20 -40 3 -25
-8 6 -16 8 -20 5 -3 -3 -3 3 0 15 3 12 1 21 -5 21 -6 0 -20 20 -32 45 -12 25
-26 45 -31 45 -5 0 -9 6 -9 14 0 13 -27 31 -41 28 -11 -2 -41 88 -35 104 3 8
2 22 -3 32 -17 34 -30 89 -36 158 -6 61 -4 79 14 119 12 26 21 54 21 61 0 8 4
14 10 14 5 0 12 17 16 37 7 39 34 69 194 214 82 74 116 128 149 233 28 90 26
100 -8 46 -33 -53 -119 -136 -179 -174 -23 -14 -90 -46 -149 -70 -214 -87
-256 -118 -256 -189 0 -47 4 -69 16 -78 4 -3 10 -16 12 -30 3 -13 7 -36 11
-51 3 -15 3 -36 -1 -47 -6 -20 -6 -20 -25 -1 -11 11 -31 22 -45 26 -20 5 -24
11 -21 30 3 16 0 24 -10 24 -8 0 -14 4 -14 9 0 5 -7 17 -16 25 -12 12 -12 16
-2 16 7 1 2 7 -11 14 -15 8 -20 16 -12 20 6 4 11 12 11 17 0 6 -5 7 -11 3 -13
-8 19 53 39 74 6 7 12 17 12 22 0 5 9 12 21 15 11 4 25 17 31 30 13 28 149 94
210 102 26 4 58 18 79 34 20 16 42 29 47 29 13 0 140 95 165 124 39 44 66 104
87 196 12 52 26 109 31 125 12 42 2 149 -17 187 -10 19 -14 42 -10 61 6 31
-17 95 -54 146 -11 16 -20 33 -20 38 0 4 5 1 11 -7 9 -12 10 -11 6 7 -3 12 0
24 6 26 6 2 1 6 -12 10 -16 4 -21 2 -17 -8 2 -7 0 -26 -6 -42 -9 -23 -7 -36
11 -70 68 -135 75 -256 24 -457 -27 -110 -96 -192 -205 -246 -171 -85 -297
-91 -403 -19 -74 50 -154 134 -176 185 -15 33 -24 43 -29 33 -10 -15 -20 -8
-94 63 -21 20 -50 39 -65 43 -14 4 -34 14 -43 22 -22 20 -23 66 -3 83 27 23
73 -7 131 -86 30 -40 57 -75 61 -77 5 -3 6 39 5 94 -3 87 -1 103 18 134 12 19
28 35 36 35 8 0 11 6 8 15 -5 12 3 15 32 17 96 3 133 -14 163 -75 33 -69 28
-111 -19 -158 -51 -51 -83 -51 -109 -2 -20 38 -14 90 14 116 26 24 26 57 0 57
-7 0 -15 5 -17 12 -7 20 -54 0 -68 -29 -7 -16 -15 -59 -17 -98 -4 -62 -2 -77
25 -133 16 -34 41 -71 55 -82 27 -21 57 -27 57 -10 0 6 7 10 16 10 8 0 13 4
10 9 -8 12 31 44 43 36 6 -3 11 -1 11 5 0 6 7 18 15 26 8 9 15 25 15 36 0 14
5 18 15 15 8 -4 27 0 42 8 37 19 103 19 131 0 42 -30 139 -82 164 -88 32 -8
46 7 89 93 41 82 48 165 25 308 -9 57 -14 107 -11 112 3 5 -1 23 -10 39 -8 17
-15 39 -15 49 0 19 -60 142 -116 237 -27 46 -29 57 -29 152 -1 102 -1 103 -33
136 -18 18 -56 41 -85 52 -28 10 -54 21 -57 24 -3 3 -24 19 -47 35 -64 43
-222 211 -243 259 -14 30 -20 65 -20 120 0 50 -4 76 -10 72 -23 -14 -2 -189
32 -270 18 -44 62 -115 130 -212 13 -18 30 -33 38 -33 17 -1 42 -21 80 -65 14
-15 18 -25 10 -21 -8 4 -2 -2 13 -14 15 -12 42 -52 59 -89 43 -94 43 -168 -2
-247 -17 -31 -45 -71 -61 -88 -16 -17 -32 -41 -35 -53 -8 -32 -27 -29 -60 10
-28 33 -96 160 -130 244 -23 59 -21 149 6 209 27 62 29 103 4 123 -10 9 -28
32 -38 51 -26 47 -70 109 -63 90 23 -71 27 -129 13 -195 -34 -165 -81 -315
-130 -420 -56 -119 -63 -129 -144 -216 -58 -62 -55 -52 -62 -229 -2 -55 -5
-70 -7 -42 -4 43 -5 44 -24 26 -15 -13 -19 -14 -20 -3 0 8 -3 25 -6 39 -2 14
-5 42 -6 63 -1 20 -4 37 -6 37 -2 0 -12 -10 -22 -22 -18 -20 -24 -54 -21 -128
1 -31 0 -32 -7 -10 -7 22 -9 23 -16 7 -6 -15 -10 -16 -16 -5 -7 10 -9 8 -10
-7 -1 -17 -2 -16 -9 5 -12 36 -12 134 0 165 14 38 4 47 -33 29 -80 -41 -102
-90 -69 -158 26 -53 43 -115 40 -143 -2 -21 -25 -39 -36 -28 -3 3 0 5 6 5 7 0
12 5 12 10 0 12 -22 9 -31 -4 -4 -5 -10 1 -14 13 -3 11 -11 21 -17 21 -13 0
-37 30 -38 48 0 15 32 16 48 0 9 -9 12 -9 12 0 0 7 -4 12 -9 12 -5 0 -11 10
-13 22 -2 16 -12 24 -32 28 -17 3 -29 8 -28 13 1 4 2 16 2 27 0 11 9 28 20 37
11 10 20 27 20 40 0 30 -42 73 -71 72 -22 0 -23 -1 -4 -9 11 -5 14 -9 6 -9 -7
-1 -25 11 -38 25 -20 21 -22 29 -11 36 9 7 8 8 -6 4 -11 -4 -23 -1 -28 6 -13
22 -9 30 13 23 15 -5 19 -4 15 4 -4 6 -14 11 -21 11 -8 0 -19 9 -25 19 -13 26
-13 28 8 36 13 5 14 3 5 -6 -14 -14 -6 -39 12 -39 6 0 23 -13 37 -30 15 -18
38 -32 59 -36 l34 -5 -42 39 c-24 22 -43 47 -43 56 0 10 -4 15 -8 12 -4 -2 -8
15 -8 39 l0 43 31 -46 c20 -31 41 -51 63 -58 18 -5 30 -13 27 -17 -3 -4 0 -3
5 1 7 5 -6 40 -35 96 -31 59 -44 94 -39 108 4 13 2 18 -4 14 -16 -10 -26 77
-14 121 10 40 13 37 29 -34 6 -24 6 -43 2 -43 -5 0 -9 -5 -9 -11 0 -5 4 -8 9
-5 4 3 13 -13 20 -34 6 -22 16 -40 22 -40 6 0 5 -9 -2 -22 -11 -21 -11 -22 4
-9 11 9 17 10 17 2 0 -20 77 -91 121 -111 41 -18 110 -28 96 -13 -4 3 -1 16 7
29 8 12 16 32 18 45 2 13 6 29 9 34 21 35 48 335 31 335 -16 0 -30 -41 -43
-125 -11 -69 -21 -101 -44 -135 -35 -52 -60 -60 -116 -35 -56 26 -90 81 -96
157 -10 118 35 204 111 217 l39 6 -39 38 c-21 20 -47 37 -57 37 -25 0 -16 24
11 28 31 5 109 -70 115 -111 6 -44 -1 -57 -30 -57 -37 0 -60 -16 -88 -64 -28
-48 -32 -94 -10 -135 15 -30 39 -41 92 -41 39 0 41 3 64 95 10 40 26 90 35
111 9 22 17 42 16 45 -1 4 17 28 40 54 35 39 46 46 68 42 28 -6 60 19 53 40
-4 12 48 53 69 53 7 0 34 23 59 51 39 42 49 60 59 112 9 53 9 68 -5 101 -9 22
-17 70 -18 111 -1 61 3 80 28 130 34 66 47 76 62 43 9 -20 11 -17 23 25 7 26
17 50 21 53 5 3 3 13 -3 24 -9 15 -9 24 2 44 7 14 19 26 27 26 7 0 18 9 25 20
7 11 19 20 26 20 7 0 15 7 18 15 4 8 10 15 15 15 5 0 -5 -24 -23 -52 -43 -68
-56 -107 -68 -200 -7 -57 -6 -89 5 -137 18 -73 29 -97 96 -196 60 -88 114
-139 140 -132 10 3 20 0 23 -7 3 -6 4 -2 3 9 -1 12 -20 31 -46 46 -24 15 -59
47 -79 70 -19 24 -37 43 -41 42 -3 -1 -6 11 -7 25 -1 15 -7 64 -15 109 -12 74
-11 89 5 150 9 37 24 99 32 137 8 38 26 94 40 124 18 39 24 62 18 81 -6 21 -8
83 -5 124 1 4 14 7 31 7 24 0 33 -7 50 -40z m4792 0 c4 0 8 -4 8 -10 0 -5 -13
-10 -28 -10 -21 0 -28 5 -29 20 -1 11 2 18 8 15 5 -4 9 2 10 12 0 15 2 14 11
-4 6 -13 15 -23 20 -23z m-4315 0 c16 -12 41 -20 64 -20 58 0 127 -34 135 -66
8 -32 -10 -47 -46 -38 -14 3 -32 7 -41 9 -40 8 -100 48 -124 82 -37 56 -33 69
12 33z m4443 0 c0 -11 -4 -20 -10 -20 -5 0 -10 9 -10 20 0 11 5 20 10 20 6 0
10 -9 10 -20z m-4150 -25 c19 -14 30 -25 24 -25 -10 0 -73 49 -63 50 3 0 20
-11 39 -25z m160 3 c30 -19 32 -22 15 -26 -10 -2 -29 -11 -41 -19 -20 -13 -24
-12 -44 16 -12 17 -18 35 -15 41 10 17 48 11 85 -12z m3950 -8 c0 -5 -4 -10
-10 -10 -5 0 -10 5 -10 10 0 6 5 10 10 10 6 0 10 -4 10 -10z m-4547 -23 c17
-27 204 -122 260 -132 54 -10 124 3 147 28 24 25 25 49 4 85 -13 22 -9 20 20
-10 44 -46 45 -68 5 -102 -25 -21 -41 -26 -87 -26 -161 0 -336 74 -383 163
-15 27 16 22 34 -6z m4237 -5 c0 -18 -57 -58 -85 -61 -16 -2 -37 -9 -46 -17
-8 -8 -21 -14 -27 -14 -17 0 -15 25 3 40 11 9 15 9 15 1 0 -8 4 -8 14 1 8 7
13 15 11 18 -2 3 14 4 36 2 34 -4 39 -2 39 17 0 14 6 21 20 21 11 0 20 -4 20
-8z m360 -19 c0 -13 -9 -19 -35 -20 -29 -3 -35 0 -35 17 0 16 7 20 35 20 27 0
35 -4 35 -17z m85 8 c3 -5 1 -12 -5 -16 -5 -3 -10 1 -10 9 0 18 6 21 15 7z
m-3995 -57 c54 -36 70 -50 70 -62 0 -7 -18 -3 -45 10 -42 20 -46 21 -61 6 -22
-22 -12 -44 23 -51 34 -7 108 -68 102 -85 -3 -9 -15 -5 -39 13 -34 25 -84 33
-95 16 -3 -5 4 -12 15 -16 23 -7 72 -74 64 -87 -3 -4 0 -8 5 -8 6 0 11 4 11 8
0 5 7 9 15 9 22 0 19 -5 -15 -22 -66 -34 -106 -107 -130 -234 -13 -73 11 -220
46 -272 13 -19 24 -39 24 -43 0 -29 35 -76 64 -86 19 -6 38 -21 44 -35 11 -23
10 -24 -12 -15 -67 25 -167 177 -190 289 -10 51 -13 54 -44 56 -18 2 -39 8
-47 15 -24 20 -135 18 -183 -4 -46 -21 -60 -18 -43 11 6 10 11 15 11 11 0 -4
18 12 39 35 29 31 48 43 72 45 44 3 97 -15 140 -48 l36 -28 16 100 c10 61 24
110 37 127 10 16 17 31 13 35 -3 3 4 6 16 6 12 0 20 4 17 9 -3 5 5 12 18 15
44 11 39 34 -14 61 -27 14 -59 25 -70 25 -12 0 -30 5 -41 11 -16 8 -18 13 -8
25 6 8 22 14 35 14 14 0 24 6 24 14 0 7 7 19 15 26 13 11 13 15 -3 39 -28 39
-33 60 -21 82 12 23 35 19 89 -17z m3753 12 c3 -8 16 -12 32 -11 20 3 24 1 15
-10 -14 -17 -60 -26 -54 -10 3 7 -2 20 -11 29 -14 13 -14 16 -2 16 8 0 17 -6
20 -14z m222 -24 c18 4 25 0 29 -19 4 -12 13 -23 21 -23 8 0 15 -9 15 -20 0
-13 7 -20 20 -20 13 0 20 -7 20 -20 0 -11 6 -20 14 -20 9 0 12 7 9 20 -5 18 0
20 41 20 41 0 46 2 46 23 0 18 2 19 10 7 15 -23 13 -26 -24 -44 -28 -13 -35
-23 -38 -49 -2 -21 -9 -33 -21 -35 -15 -3 -18 0 -12 17 4 13 2 21 -5 21 -6 0
-13 -13 -16 -30 -4 -16 -13 -30 -20 -30 -11 0 -11 -6 -3 -27 5 -14 8 -32 5
-40 -3 -7 -1 -13 4 -13 6 0 10 -9 10 -20 0 -13 -7 -20 -20 -20 -11 0 -20 -7
-20 -15 0 -18 5 -18 31 -4 16 8 25 7 38 -5 10 -9 25 -16 34 -16 8 0 25 -12 37
-27 18 -23 19 -29 7 -31 -9 -2 -18 -9 -20 -16 -4 -9 2 -12 17 -9 16 3 34 -6
59 -31 40 -39 56 -43 87 -24 18 11 23 9 46 -17 17 -20 23 -36 19 -52 -3 -12 0
-33 7 -47 9 -20 19 -26 44 -26 18 0 36 -4 39 -10 3 -5 15 -10 26 -10 10 0 19
-7 19 -15 0 -8 4 -15 8 -15 5 0 9 -7 9 -15 0 -10 -10 -15 -31 -15 -17 0 -43
-7 -58 -14 -24 -13 -28 -13 -28 0 0 19 -46 18 -53 -1 -8 -19 13 -31 24 -14 6
10 9 11 9 2 0 -8 14 -13 34 -13 30 0 35 -3 38 -27 3 -29 5 -30 51 -19 31 7 32
1 17 -56 -10 -35 -12 -36 -45 -31 -28 4 -35 2 -35 -11 0 -9 -7 -16 -15 -16 -8
0 -15 -9 -15 -20 0 -11 -4 -20 -10 -20 -5 0 -10 11 -10 25 0 14 5 25 10 25 6
0 10 7 10 16 0 8 -4 12 -10 9 -5 -3 -10 1 -10 10 0 11 5 15 14 12 10 -4 13 -1
9 9 -3 7 -1 14 5 14 20 0 21 31 3 49 -23 23 -31 17 -31 -20 0 -15 -5 -31 -11
-35 -8 -4 -10 6 -6 34 4 39 3 40 -18 32 -13 -5 -26 -6 -29 -3 -3 3 -12 0 -21
-7 -13 -11 -15 -3 -15 64 0 44 -4 75 -9 72 -5 -4 -12 0 -14 6 -3 7 -6 3 -6
-10 -1 -13 3 -20 9 -17 6 4 10 -10 10 -34 0 -38 -2 -41 -27 -41 -16 0 -23 4
-18 8 18 13 15 32 -6 32 -11 0 -18 4 -15 9 4 5 -2 7 -13 4 -10 -3 -22 0 -25 6
-4 6 -16 11 -27 11 -10 0 -19 6 -19 14 0 19 30 29 46 15 10 -8 14 -8 14 0 0 6
-4 11 -10 11 -5 0 -7 8 -4 18 4 12 3 13 -3 4 -13 -18 -30 23 -27 66 1 26 -1
32 -15 27 -13 -4 -17 1 -16 22 0 21 -5 28 -20 28 -13 0 -19 7 -19 18 1 11 -6
17 -21 17 -16 0 -26 8 -33 29 -6 16 -20 32 -31 36 -16 5 -20 13 -17 30 4 20 0
24 -33 30 -21 3 -43 5 -50 3 -8 -2 -19 15 -27 42 -18 58 -17 78 2 97 13 14 17
14 26 2 7 -11 11 -11 15 -1 2 6 14 12 24 12 11 0 17 5 14 10 -3 6 1 10 10 10
11 0 15 -5 12 -14 -4 -10 2 -18 16 -22 12 -4 23 -2 25 5 2 6 12 11 23 11 12 0
19 7 19 20 0 20 -9 24 -42 21 -10 -1 -18 3 -18 10 0 8 -4 8 -15 -1 -9 -7 -18
-10 -22 -7 -3 4 -12 2 -19 -4 -16 -13 -37 -2 -27 14 5 8 2 8 -9 -1 -13 -11
-16 -7 -22 30 -4 23 -12 45 -18 49 -14 9 -1 29 19 29 10 0 14 -6 10 -20 -3
-13 0 -20 9 -20 10 0 14 13 15 43 1 24 4 32 6 18 4 -18 10 -22 28 -19z m-5237
16 c-4 -12 -128 -61 -136 -53 -9 9 13 28 52 46 47 21 90 25 84 7z m42 -4 c0
-2 -7 -4 -15 -4 -8 0 -15 4 -15 10 0 5 7 7 15 4 8 -4 15 -8 15 -10z m4590 -49
c0 -3 -9 -15 -20 -27 -22 -24 -26 -18 -10 13 10 17 30 27 30 14z m370 -9 c0
-8 -4 -17 -9 -21 -12 -7 -24 12 -16 25 9 15 25 12 25 -4z m-40 -41 c0 -8 -4
-15 -9 -15 -13 0 -22 16 -14 24 11 11 23 6 23 -9z m-3476 -7 c6 -7 12 -24 13
-38 l2 -25 -19 25 c-19 24 -26 50 -14 50 3 0 11 -6 18 -12z m3087 -15 c-12
-20 -14 -14 -5 12 4 9 9 14 11 11 3 -2 0 -13 -6 -23z m-4740 -19 c-28 -12 -72
-43 -99 -68 -26 -24 -60 -48 -76 -52 -26 -6 -28 -5 -21 17 8 23 72 88 88 89 5
0 21 8 35 19 32 22 57 28 95 23 26 -4 25 -6 -22 -28z m243 -50 c4 -10 1 -14
-6 -12 -15 5 -23 28 -10 28 5 0 13 -7 16 -16z m772 -3 c22 -14 32 -27 32 -45
0 -28 -3 -27 -49 14 -9 8 -27 23 -40 33 l-23 17 24 0 c14 0 39 -9 56 -19z
m277 -17 c60 -30 90 -74 52 -74 -8 0 -15 4 -15 9 0 11 -62 41 -86 41 -15 0
-13 -4 9 -28 35 -36 34 -48 -4 -61 -29 -10 -34 -8 -68 27 -20 20 -49 45 -64
55 -42 27 -34 41 21 33 26 -3 61 -2 77 3 42 13 42 13 78 -5z m-508 -34 c0 -20
-6 -26 -28 -28 -32 -4 -46 20 -26 44 19 24 54 14 54 -16z m186 -1 c16 -16 18
-23 8 -35 -6 -8 -17 -14 -25 -14 -8 0 -14 -16 -16 -47 l-3 -48 -32 47 c-31 43
-43 95 -26 111 14 15 74 6 94 -14z m-1102 -69 c-58 -66 -111 -105 -134 -96
-27 10 -16 31 30 56 25 14 45 27 45 30 0 3 23 19 50 35 28 16 50 34 50 39 0 5
3 7 6 3 4 -3 -17 -33 -47 -67z m1306 -31 c59 -52 41 -86 -39 -74 -40 6 -42 5
-79 -45 -21 -28 -40 -57 -44 -65 -3 -8 -9 -15 -13 -15 -14 0 -20 48 -14 107
10 77 50 121 111 122 34 1 50 -5 78 -30z m-1255 -36 c-11 -21 -20 -43 -20 -49
0 -24 -45 -96 -87 -138 -34 -35 -51 -44 -89 -50 -54 -7 -64 -3 -64 27 0 22 32
72 47 72 50 3 88 21 128 60 25 25 45 49 45 54 0 13 40 61 51 61 5 0 0 -17 -11
-37z m35 -181 c-9 -99 -31 -150 -88 -209 -46 -48 -56 -53 -95 -53 -32 0 -49 6
-67 25 -30 29 -31 35 -5 67 14 19 32 27 67 31 40 4 54 12 84 46 21 23 50 70
65 105 15 36 32 62 36 60 5 -3 6 -35 3 -72z m2051 -87 c13 -27 24 -58 24 -67
0 -43 -144 -5 -195 52 -18 20 -16 20 32 -4 63 -32 91 -33 102 -4 6 16 1 36
-18 73 -14 27 -29 52 -33 53 -5 2 -8 9 -8 15 1 20 70 -66 96 -118z m3549 115
c3 -6 -1 -7 -9 -4 -18 7 -21 14 -7 14 6 0 13 -4 16 -10z m-4887 -45 c-3 -3 -9
2 -12 12 -6 14 -5 15 5 6 7 -7 10 -15 7 -18z m1127 -5 c-3 -5 -1 -19 5 -30 6
-11 8 -20 6 -20 -9 0 -35 57 -29 63 9 9 24 -3 18 -13z m270 -60 c37 -38 62
-55 66 -48 4 7 19 -3 41 -28 18 -21 48 -52 67 -69 56 -50 111 -108 106 -113
-8 -8 -53 27 -86 68 -18 22 -38 40 -44 40 -7 0 -61 47 -121 105 -59 58 -104
105 -98 105 5 0 36 -27 69 -60z m-2479 15 c16 -8 23 -15 16 -15 -7 0 -12 -6
-11 -12 1 -7 0 -20 -4 -28 -3 -8 -8 -33 -11 -55 -3 -22 -10 -41 -16 -43 -6 -2
-17 -11 -25 -19 -25 -24 -62 -9 -75 31 -19 59 10 130 60 149 25 9 36 8 66 -8z
m1534 -20 c25 -8 64 -20 87 -25 67 -17 126 -90 116 -144 -7 -37 -11 -42 -45
-50 -20 -5 -33 1 -59 25 -43 40 -104 75 -157 89 -23 6 -40 15 -37 20 8 13 -76
13 -110 0 -76 -29 -32 38 50 76 58 28 93 30 155 9z m721 -66 c46 -46 46 -63 0
-67 -52 -5 -120 54 -105 92 12 31 61 19 105 -25z m302 -53 c50 -51 40 -59 -13
-10 -46 43 -80 92 -44 64 10 -8 36 -32 57 -54z m3467 54 c0 -5 -4 -10 -10 -10
-5 0 -10 5 -10 10 0 6 5 10 10 10 6 0 10 -4 10 -10z m100 -90 c0 -5 -7 -10
-16 -10 -8 0 -12 5 -9 10 3 6 10 10 16 10 5 0 9 -4 9 -10z m100 -42 c0 -11 7
-26 15 -35 12 -11 14 -27 9 -66 -7 -54 -24 -89 -24 -49 0 12 -4 22 -10 22 -5
0 -10 -16 -10 -35 0 -24 -5 -35 -14 -35 -19 0 -33 23 -18 28 15 5 16 42 2 42
-5 0 -10 9 -10 20 0 11 -4 20 -10 20 -5 0 -10 9 -10 20 0 14 7 20 24 20 28 0
39 21 26 54 -5 13 -6 27 -3 30 10 10 33 -15 33 -36z m285 32 c3 -6 -1 -7 -9
-4 -18 7 -21 14 -7 14 6 0 13 -4 16 -10z m-461 -25 c-4 -10 0 -15 15 -15 14 0
21 -6 21 -20 0 -12 5 -17 14 -14 10 4 12 -2 9 -20 -6 -32 -43 -37 -43 -6 0 11
-4 20 -10 20 -5 0 -10 9 -10 19 0 21 -25 35 -43 25 -8 -5 -9 -4 -2 4 6 5 19
12 30 15 11 3 21 5 22 6 1 0 0 -6 -3 -14z m-3331 -60 c28 -19 58 -40 65 -45
13 -12 17 -50 4 -50 -17 0 -99 58 -120 85 -44 55 -23 59 51 10z m-523 3 c48
-24 92 -80 83 -103 -7 -20 -69 -30 -99 -16 -32 14 -64 68 -64 109 0 39 17 42
80 10z m3721 -11 c-5 -14 -24 -27 -55 -37 -41 -13 -46 -18 -47 -45 0 -29 0
-29 -10 -6 -7 18 -6 28 6 41 8 9 15 22 15 29 0 9 9 11 30 6 19 -4 30 -3 30 4
0 6 -6 11 -12 11 -9 0 -8 3 2 9 8 6 18 7 22 5 4 -3 8 0 8 6 0 6 4 9 10 5 5 -3
6 -15 1 -28z m249 -87 c0 -17 -7 -20 -40 -20 -33 0 -40 3 -40 20 0 17 7 20 40
20 33 0 40 -3 40 -20z m-3811 -18 c11 -11 12 -15 2 -22 -9 -5 -8 -9 4 -14 15
-5 16 -15 11 -59 -13 -101 -41 -149 -75 -128 -16 10 -30 77 -31 143 0 59 7 78
32 78 10 0 17 4 14 9 -9 14 27 8 43 -7z m378 6 c7 -5 11 -21 8 -34 -3 -13 -7
-34 -10 -47 -4 -24 -27 -30 -74 -21 -22 5 -22 6 -7 23 9 10 16 27 16 38 0 12
2 28 5 35 7 17 45 21 62 6z m-906 -35 c13 -15 12 -15 -8 -4 -24 12 -29 21 -14
21 5 0 15 -7 22 -17z m-94 -32 c26 -18 30 -53 8 -71 -8 -6 -32 -14 -53 -17
-32 -4 -44 -1 -61 16 -32 32 -28 69 12 86 34 15 59 11 94 -14z m-1960 -43 c-3
-7 -5 -2 -5 12 0 14 2 19 5 13 2 -7 2 -19 0 -25z m1833 -63 c11 -13 10 -14 -4
-9 -9 3 -16 10 -16 15 0 13 6 11 20 -6z m-1051 -12 c-4 -25 20 -159 37 -213 8
-25 13 -57 12 -72 -2 -25 -3 -26 -28 -13 -64 33 -105 123 -94 207 6 53 30 105
42 93 4 -3 0 -10 -8 -15 -10 -7 -11 -10 -3 -10 7 0 18 9 25 20 16 25 20 25 17
3z m1236 -13 c2 -24 -8 -25 -29 -4 -20 20 -20 28 -1 20 8 -3 15 0 15 6 0 19
14 -1 15 -22z m1272 -24 c17 -19 19 -27 10 -39 -20 -24 -42 -26 -85 -7 -45 20
-56 43 -19 40 42 -4 57 0 57 15 0 22 13 18 37 -9z m-3502 -86 c3 -5 2 -10 -4
-10 -5 0 -13 5 -16 10 -3 6 -2 10 4 10 5 0 13 -4 16 -10z m155 -25 c0 -8 -2
-15 -4 -15 -2 0 -6 7 -10 15 -3 8 -1 15 4 15 6 0 10 -7 10 -15z m2757 -17 c30
-28 29 -49 -2 -86 -51 -60 -156 -90 -201 -58 -22 16 -23 15 36 42 44 21 59 39
80 97 12 34 53 37 87 5z m-1431 -59 c36 -70 -2 -139 -77 -139 -29 0 -42 6 -58
26 -37 47 -14 144 34 144 13 0 26 4 30 10 9 15 55 -11 71 -41z m2019 -77 c48
-34 58 -62 21 -62 -52 0 -110 49 -92 79 11 17 27 13 71 -17z m-3417 -67 c-3
-3 -9 2 -12 12 -6 14 -5 15 5 6 7 -7 10 -15 7 -18z m828 -13 c35 -23 34 -85
-2 -99 -23 -9 -45 24 -38 56 12 54 16 59 40 43z m669 -22 c-3 -5 -2 -10 3 -10
27 0 43 -149 23 -203 -13 -32 -120 -136 -150 -144 -28 -7 -41 9 -41 55 0 20 6
35 15 38 8 4 15 12 15 18 0 7 11 18 26 24 14 7 30 26 36 42 5 17 14 30 19 30
5 0 9 7 9 15 0 7 7 18 15 22 10 6 15 27 16 66 1 31 6 57 11 57 5 0 6 -4 3 -10z
m2213 -38 c39 -33 39 -40 7 -52 -15 -6 -25 -17 -25 -29 0 -33 -22 -36 -47 -7
-27 32 -28 47 -8 86 19 37 31 37 73 2z m-3739 -27 c0 -5 -6 -1 -14 9 -8 11
-15 24 -15 30 0 5 7 1 15 -10 8 -10 14 -23 14 -29z m755 12 c34 -45 42 -223
10 -210 -8 3 -14 13 -14 23 0 10 -16 50 -35 89 -34 68 -43 110 -28 125 14 14
46 1 67 -27z m708 -7 c-2 -16 -9 -30 -15 -30 -6 0 -7 -3 -4 -7 9 -9 -23 -43
-40 -43 -8 0 -11 -4 -8 -10 3 -5 -1 -10 -10 -10 -10 0 -15 -6 -12 -13 3 -7 -4
-19 -15 -26 -16 -10 -24 -9 -44 4 -13 8 -25 23 -25 33 -2 28 2 47 12 50 5 2 9
12 9 23 0 14 7 19 29 19 16 0 34 7 41 15 8 10 22 13 39 9 20 -4 23 -3 11 5
-12 9 -10 11 11 11 23 0 25 -3 21 -30z m2086 3 c21 -15 52 -44 70 -64 31 -35
32 -38 11 -34 -12 3 -39 17 -58 33 -20 15 -48 35 -63 45 -31 19 -37 47 -12 47
9 0 32 -12 52 -27z m-917 -55 c11 -21 11 -22 -4 -9 -10 7 -17 17 -17 22 0 15
9 10 21 -13z m20 -45 c13 -16 12 -17 -3 -4 -10 7 -18 15 -18 17 0 8 8 3 21
-13z m154 -228 c30 -30 68 -75 63 -75 -13 0 -128 124 -128 137 0 8 12 0 27
-19 16 -18 32 -37 38 -43z m-2545 45 c0 -5 -2 -10 -4 -10 -3 0 -8 5 -11 10 -3
6 -1 10 4 10 6 0 11 -4 11 -10z m3798 -27 c15 -10 51 -37 80 -60 29 -24 60
-43 68 -43 8 0 26 -11 39 -25 14 -13 25 -21 25 -17 0 5 -5 13 -12 20 -7 7 -8
12 -2 12 6 0 21 -12 35 -27 17 -19 19 -24 7 -20 -9 3 -18 1 -21 -6 -6 -18 -55
8 -111 58 -27 25 -51 43 -53 41 -14 -14 76 -95 158 -140 25 -14 58 -39 74 -56
45 -47 5 -39 -77 15 -61 42 -186 167 -181 183 1 4 -8 13 -20 20 -19 12 -20 13
-2 7 14 -4 11 3 -13 25 -37 34 -35 39 6 13z m-569 -39 c42 -9 91 -55 91 -86 0
-29 -34 -48 -86 -48 -28 0 -44 8 -70 34 -38 38 -42 60 -17 88 17 19 33 22 82
12z m763 -68 c-6 -11 -62 49 -62 67 0 6 15 -4 34 -23 18 -19 31 -39 28 -44z
m-3558 39 c-4 -10 -2 -13 7 -10 21 8 78 -31 100 -70 12 -19 25 -35 30 -35 5 0
9 -4 9 -9 0 -6 -18 2 -41 17 -23 15 -44 27 -48 27 -36 3 -111 30 -112 41 -1 8
-2 20 -3 26 -1 7 13 16 29 19 17 4 31 7 32 8 1 0 0 -6 -3 -14z m2216 -45 c0
-5 -5 -10 -11 -10 -5 0 -7 5 -4 10 3 6 8 10 11 10 2 0 4 -4 4 -10z m-941 -55
c53 -27 48 -82 -10 -105 -41 -17 -79 2 -90 44 -17 61 37 94 100 61z m2363 -14
c2 -6 80 -88 173 -183 94 -96 188 -194 210 -218 47 -51 -134 112 -239 216 -78
76 -173 194 -157 194 5 0 11 -4 13 -9z m-1443 -32 c-22 -13 -31 -11 -17 5 7 8
17 12 22 9 4 -3 2 -9 -5 -14z m-1974 -62 c22 -12 45 -26 50 -33 6 -6 18 -15
27 -20 10 -6 -26 -9 -97 -9 -97 0 -112 2 -102 14 10 12 9 13 -7 8 -10 -4 -25
-2 -32 4 -10 8 -14 8 -14 0 0 -6 4 -11 9 -11 5 0 12 -8 15 -17 6 -15 3 -14
-14 3 -28 28 -18 56 19 49 24 -5 25 -5 4 4 -33 15 -28 21 10 16 17 -3 26 -2
18 1 -11 5 -11 8 0 15 18 12 63 2 114 -24z m1712 -52 c0 -8 -4 -12 -9 -9 -4 3
-8 9 -8 15 0 5 4 9 8 9 5 0 9 -7 9 -15z m1634 -27 c52 -37 68 -57 69 -81 0
-40 -48 -30 -103 22 -26 23 -57 71 -57 86 0 16 53 1 91 -27z m-1238 8 c9 5 9
4 0 -6 -13 -15 -37 -4 -26 13 5 8 8 8 11 -1 2 -7 9 -9 15 -6z m-1915 -65 c12
-6 22 -16 22 -21 0 -6 8 -11 18 -11 32 -2 -43 -17 -93 -18 -59 -1 -125 -18
-125 -31 0 -6 -5 -10 -11 -10 -5 0 -7 6 -3 13 4 7 3 9 -2 4 -9 -9 -10 -13 -13
-42 0 -8 -5 -15 -10 -15 -5 0 -7 9 -4 20 4 15 0 20 -16 20 -15 0 -21 6 -21 23
0 13 -5 28 -12 35 -9 9 -7 13 7 19 11 3 27 14 37 22 37 32 160 27 226 -8z
m1986 24 c3 -8 1 -15 -4 -15 -6 0 -10 7 -10 15 0 8 2 15 4 15 2 0 6 -7 10 -15z
m36 -36 c0 -5 -4 -9 -10 -9 -5 0 -10 7 -10 16 0 8 5 12 10 9 6 -3 10 -10 10
-16z m925 -15 c28 -18 34 -59 9 -68 -47 -18 -114 7 -114 44 0 38 62 52 105 24z
m172 -12 c6 -4 11 -18 12 -32 0 -14 3 -40 7 -57 8 -42 -2 -84 -19 -77 -20 7
-81 139 -74 158 7 17 52 22 74 8z m-3390 -44 c-3 -7 -5 -2 -5 12 0 14 2 19 5
13 2 -7 2 -19 0 -25z m1012 2 c59 -41 24 -118 -47 -104 -47 9 -53 23 -35 77
17 53 37 60 82 27z m2747 -22 c79 -62 159 -176 168 -237 6 -41 5 -43 -10 -30
-15 12 -15 10 2 -21 10 -19 19 -37 19 -40 1 -3 4 -14 7 -25 3 -11 9 -33 13
-49 l6 -29 -24 29 c-13 16 -43 61 -67 99 -24 39 -79 108 -122 154 -55 58 -76
87 -69 94 7 7 18 6 36 -3 26 -14 136 -125 168 -170 13 -19 13 -15 -3 18 -19
38 -104 149 -152 195 -39 38 -17 49 28 15z m-3722 -34 c5 -14 4 -15 -9 -4 -17
14 -19 20 -6 20 5 0 12 -7 15 -16z m3541 -17 c28 -13 55 -38 55 -50 0 -5 -18
-7 -44 -3 -48 7 -56 0 -56 -52 0 -15 -5 -34 -10 -42 -9 -13 -13 -12 -30 8 -22
26 -43 94 -38 120 7 37 68 47 123 19z m566 -289 c104 -105 187 -193 185 -195
-4 -4 -127 77 -141 93 -5 6 -32 31 -59 55 l-49 44 48 -90 c162 -300 382 -577
538 -675 116 -73 286 -321 316 -460 51 -238 74 -290 176 -390 58 -58 127 -110
144 -110 5 0 -4 24 -19 53 -15 28 -42 99 -58 157 -32 112 -45 150 -86 246 -14
33 -29 87 -32 120 -5 37 -15 70 -29 89 -13 17 -30 45 -40 64 -9 19 -38 56 -62
83 -25 26 -42 48 -38 48 4 0 -2 8 -13 18 -12 9 -22 24 -24 32 -2 8 -10 20 -18
27 -8 7 -11 13 -7 13 10 0 130 -122 157 -160 11 -15 17 -30 13 -33 -3 -4 9
-29 28 -58 30 -48 33 -50 41 -29 7 19 10 21 26 9 41 -31 139 -139 167 -183 17
-26 45 -71 62 -99 18 -29 33 -63 33 -76 0 -24 -12 -25 -80 -6 -22 7 -21 4 10
-23 33 -28 76 -53 145 -83 33 -14 105 -78 105 -92 0 -21 -144 30 -181 64 -8 8
-30 28 -48 44 l-33 30 15 -30 c26 -50 87 -99 197 -155 141 -72 252 -165 173
-145 -15 3 -62 24 -105 46 l-79 39 21 -30 c24 -34 153 -103 210 -114 25 -4 52
-22 90 -61 l54 -55 -36 0 c-21 0 -64 14 -104 34 -38 19 -70 33 -72 31 -2 -2
48 -57 112 -122 l117 -118 -3 60 c-1 33 1 66 6 73 17 28 96 1 167 -59 26 -22
51 -39 56 -39 22 0 66 -64 123 -177 40 -79 40 -142 -2 -157 -22 -8 -40 -2
-105 29 -94 46 -118 66 -253 211 -58 62 -118 123 -133 135 l-29 22 30 -54 c85
-153 93 -328 21 -472 -41 -80 -216 -248 -279 -268 -19 -6 -41 -13 -49 -15 -9
-3 -2 -12 19 -27 64 -43 102 -127 64 -141 -13 -5 -30 6 -65 42 -43 45 -53 50
-116 61 -97 18 -100 19 -78 35 17 12 17 13 -1 20 -10 4 -77 12 -149 17 -173
13 -236 25 -324 62 -77 32 -131 41 -131 24 0 -6 -13 1 -28 16 -15 15 -32 27
-38 27 -14 0 -155 108 -188 144 -16 17 -43 60 -60 96 -26 54 -31 77 -31 135 1
62 5 78 39 138 l39 69 -12 68 c-13 80 -51 198 -78 240 -60 95 -275 295 -368
342 -38 19 -35 15 36 -58 96 -100 103 -110 196 -282 38 -71 59 -150 68 -258 6
-70 3 -91 -20 -170 -15 -49 -35 -102 -43 -119 -9 -16 -17 -34 -18 -40 -1 -5
-3 -14 -5 -20 -2 -5 26 -39 62 -75 72 -70 109 -145 109 -218 0 -37 -44 -172
-77 -235 -14 -28 -14 -41 -3 -112 16 -99 30 -135 80 -202 41 -53 51 -75 26
-54 -7 6 -20 9 -29 5 -9 -3 -48 14 -94 42 -186 113 -234 165 -282 311 -47 138
-42 247 16 393 31 79 110 239 128 260 35 40 53 192 32 280 -9 36 -21 90 -28
120 -21 99 -85 206 -174 294 -44 43 -96 88 -115 100 -39 25 -205 97 -264 116
-61 20 -177 7 -271 -30 -44 -17 -81 -32 -82 -34 -1 -1 26 -3 60 -4 56 -2 121
-17 262 -59 28 -8 89 -35 138 -60 108 -56 184 -135 263 -273 43 -77 58 -117
75 -196 28 -130 19 -189 -54 -334 -64 -129 -130 -201 -232 -251 -58 -28 -81
-34 -130 -33 -121 2 -275 67 -329 137 -35 45 -66 123 -66 162 0 37 15 55 24
28 3 -10 4 -4 3 13 -2 20 1 31 10 31 10 0 12 -8 6 -31 -10 -44 -5 -107 10
-120 7 -6 26 -28 41 -49 43 -59 166 -116 256 -118 88 -3 180 67 257 194 40 66
52 133 39 222 -10 60 -50 87 -172 114 -160 34 -261 100 -329 212 -51 83 -61
156 -35 240 11 34 28 72 38 82 17 20 15 20 -108 14 -130 -7 -201 -18 -285 -44
-40 -12 -60 -27 -95 -69 -48 -57 -138 -110 -195 -115 -103 -9 -268 68 -375
174 -52 51 -90 100 -90 116 0 7 -7 23 -16 36 -9 13 -22 44 -28 67 l-13 42 -32
-64 c-17 -36 -31 -71 -31 -78 0 -7 -19 -34 -43 -60 -51 -55 -92 -112 -81 -112
5 0 3 -5 -3 -11 -9 -9 -6 -17 10 -31 12 -11 17 -17 10 -14 -20 11 -51 -46 -54
-99 -3 -53 8 -105 21 -105 5 0 11 -8 15 -19 3 -10 18 -31 34 -47 26 -26 33
-62 8 -47 -6 3 -7 1 -3 -6 6 -9 11 -9 24 1 13 11 15 10 9 -4 -4 -11 -2 -15 7
-12 7 3 42 -24 78 -60 63 -62 125 -138 100 -122 -8 5 -10 2 -6 -8 3 -9 9 -14
13 -12 10 6 38 -62 31 -75 -5 -8 -10 -5 -15 10 -3 12 -11 19 -16 16 -5 -4 -6
2 -2 12 3 10 2 15 -2 10 -5 -4 -14 5 -20 21 -9 21 -20 28 -45 30 -43 3 -49 8
-66 48 -8 19 -21 34 -29 34 -8 0 -15 4 -15 9 0 5 -9 13 -20 16 -12 4 -20 15
-20 28 0 18 -2 19 -11 7 -8 -12 -9 -10 -4 8 5 17 0 29 -18 45 -13 12 -30 32
-37 45 -7 14 -17 21 -26 18 -8 -3 -17 1 -20 9 -4 8 -10 12 -15 9 -5 -3 -4 7 1
23 9 25 9 26 -4 10 -13 -16 -14 -16 -14 5 -1 13 -5 47 -10 76 -10 59 -5 105
11 95 6 -3 7 -1 3 6 -4 6 10 36 32 69 21 31 59 88 85 125 58 85 80 156 111
352 23 142 30 261 17 269 -7 5 -11 -4 -11 -27 0 -51 -37 -185 -70 -252 -33
-67 -147 -193 -198 -219 -18 -9 -55 -20 -82 -23 -80 -9 -131 16 -227 114 -123
125 -181 245 -171 352 8 84 68 136 130 112 68 -26 118 -109 118 -196 0 -50
-17 -69 -54 -59 -56 14 -78 96 -31 114 32 12 24 30 -36 85 l-42 38 -28 -33
c-16 -18 -29 -35 -29 -39 2 -60 26 -154 54 -209 35 -69 128 -167 188 -198 33
-17 40 -12 74 49 20 38 22 51 28 172 9 178 51 229 190 231 39 0 76 1 82 2 28
5 35 221 10 291 -9 24 -14 46 -12 48 9 9 84 -118 91 -154 6 -31 9 -35 15 -18
8 21 7 22 41 -106 23 -90 37 -197 38 -303 2 -96 5 -116 26 -151 49 -85 64 -90
273 -83 37 2 66 -2 70 -8 4 -6 17 -14 29 -18 42 -13 128 -125 136 -178 4 -20
9 -22 43 -20 50 4 59 18 80 110 16 71 16 77 -1 108 -25 47 -64 80 -114 97
l-45 15 34 17 c67 35 160 -10 200 -95 23 -49 33 -59 45 -41 7 12 73 31 240 67
125 28 138 29 357 26 183 -2 242 -6 300 -21 100 -26 217 -81 266 -125 35 -32
44 -36 61 -26 16 8 27 7 48 -7 24 -16 25 -18 7 -21 -48 -8 -47 -13 24 -82 39
-39 91 -95 114 -126 48 -62 107 -162 108 -182 0 -7 9 -31 19 -55 11 -23 22
-59 25 -81 4 -28 18 -52 56 -92 28 -30 65 -84 83 -121 31 -66 32 -71 32 -208
0 -118 3 -145 18 -168 33 -50 193 -114 320 -127 72 -7 111 -4 82 6 -12 5 -12
184 0 205 44 75 104 153 128 165 19 10 56 15 106 15 101 -1 131 9 159 49 63
93 -26 269 -153 301 -51 13 -60 29 -15 29 48 0 116 -38 172 -96 59 -61 78 -99
80 -161 2 -24 4 -43 6 -43 16 0 34 39 39 84 6 61 -10 97 -69 152 -56 52 -170
113 -229 123 -107 19 -173 22 -190 9 -39 -32 -51 -144 -20 -191 35 -54 83 -86
128 -87 32 0 43 4 48 19 12 37 68 38 80 0 10 -31 -3 -54 -45 -78 -47 -26 -102
-22 -160 12 -53 31 -130 114 -153 165 -23 54 -36 172 -18 172 13 0 58 30 107
71 20 17 55 31 97 39 l65 13 -57 43 c-31 23 -69 60 -86 82 -16 22 -33 38 -36
36 -4 -2 -39 23 -78 56 -87 73 -124 85 -295 95 -55 3 -106 10 -115 15 -31 16
-54 50 -61 91 l-8 41 37 -6 c20 -3 65 -10 101 -15 36 -5 92 -17 125 -26 33
-10 74 -21 92 -25 17 -4 48 -18 67 -30 20 -12 36 -17 36 -11 0 6 -19 20 -42
32 -73 37 -125 77 -148 114 -21 34 -24 35 -83 35 -119 1 -241 58 -382 181 -44
38 -87 71 -96 74 -19 6 -32 57 -17 66 20 12 48 -4 125 -70 126 -109 241 -180
142 -88 -51 47 -81 89 -164 232 -62 106 -72 116 -162 180 -62 44 -158 135
-142 135 16 0 88 -39 161 -87 48 -31 90 -72 143 -139 42 -52 78 -94 80 -94 3
0 4 22 4 49 -1 35 5 61 20 87 l22 37 -44 46 c-163 170 -352 485 -412 686 -14
50 -33 105 -41 123 -9 21 -10 32 -3 32 6 0 96 -86 200 -192z m-2933 156 c4 -6
14 -14 22 -17 8 -3 -9 -6 -38 -6 -70 -1 -116 -24 -137 -67 -9 -19 -20 -32 -25
-29 -5 3 -20 -1 -33 -10 -22 -14 -24 -14 -35 10 -16 34 -15 100 1 113 18 15
61 20 155 18 48 0 86 -6 90 -12z m-437 -14 c20 -11 23 -36 13 -88 -6 -28 -10
-31 -37 -28 -17 2 -38 14 -48 27 -18 24 -25 79 -12 92 10 11 62 8 84 -3z
m2942 -2 c48 -14 144 -99 133 -117 -9 -14 -40 -6 -76 19 -36 25 -73 15 -115
-32 -20 -21 -40 -36 -45 -33 -16 10 -33 82 -26 109 9 35 41 66 67 66 12 0 40
-5 62 -12z m-2113 -88 c-20 -53 -22 -74 -18 -180 4 -107 6 -122 26 -140 12
-11 24 -33 28 -48 3 -15 10 -40 15 -56 13 -42 -1 -52 -50 -37 -46 13 -69 45
-101 141 -42 126 -10 277 77 356 20 19 39 32 41 29 3 -2 -5 -32 -18 -65z m148
-170 c31 -66 69 -104 136 -135 49 -23 61 -34 78 -71 17 -40 18 -46 4 -66 -33
-46 -143 -13 -212 63 -80 88 -134 233 -119 320 6 36 34 67 48 53 3 -3 11 14
19 37 l12 44 6 -100 c5 -72 12 -113 28 -145z m-1558 216 c0 -3 -4 -8 -10 -11
-5 -3 -10 -1 -10 4 0 6 5 11 10 11 6 0 10 -2 10 -4z m7 -52 c-3 -3 -12 -4 -19
-1 -8 3 -5 6 6 6 11 1 17 -2 13 -5z m1241 -11 c-47 -54 -61 -149 -47 -300 4
-35 3 -63 -2 -63 -5 0 -9 -6 -9 -13 0 -8 -8 -14 -17 -14 -17 0 -46 29 -70 71
-15 25 -17 135 -3 170 16 43 109 154 133 159 12 2 24 5 26 6 2 0 -3 -7 -11
-16z m-1228 -13 c0 -5 -5 -10 -11 -10 -5 0 -7 5 -4 10 3 6 8 10 11 10 2 0 4
-4 4 -10z m3639 -85 c45 -15 156 -97 165 -121 8 -20 -4 -44 -21 -44 -8 0 -40
17 -71 38 -56 37 -57 37 -162 37 -58 0 -112 -3 -120 -7 -8 -4 -21 -4 -29 1
-12 8 -13 15 -3 35 29 64 148 94 241 61z m464 -155 c85 -64 130 -113 65 -71
-18 11 -32 26 -30 32 1 6 -2 8 -8 4 -12 -7 -82 50 -73 59 4 3 0 6 -9 6 -8 0
-23 10 -34 21 -30 34 -4 19 89 -51z m-445 0 c102 -28 167 -65 238 -135 75 -72
88 -112 49 -150 l-24 -25 -51 26 c-28 14 -80 48 -116 75 -88 68 -185 94 -329
87 -95 -5 -145 3 -145 24 0 5 10 12 23 17 13 5 29 17 37 27 8 9 35 30 59 46
38 24 55 28 116 28 40 0 102 -9 143 -20z m498 -74 c87 -66 194 -164 194 -179
0 -9 -77 47 -97 72 -7 8 -13 11 -13 7 0 -13 -86 52 -125 96 -22 23 -40 41 -41
38 -3 -8 -54 42 -54 53 0 11 36 -12 136 -87z m-1749 -14 c7 -4 9 -13 5 -19 -5
-8 -13 -9 -22 -3 -13 9 -13 10 0 10 13 0 13 1 0 10 -8 5 -10 10 -5 10 6 0 15
-4 22 -8z m-449 -26 c6 -13 14 -51 17 -83 7 -56 -7 -111 -46 -189 -14 -28 -62
-21 -84 13 -27 40 -22 78 18 136 30 43 37 63 37 100 0 43 2 47 23 47 15 0 28
-9 35 -24z m2224 -44 c97 -62 308 -236 308 -254 0 -17 -20 -5 -121 68 -57 42
-111 81 -119 87 -8 6 12 -14 44 -44 32 -30 102 -84 155 -120 95 -65 159 -122
188 -166 14 -21 14 -23 -1 -23 -21 0 -108 44 -165 83 -79 54 -179 146 -227
208 -38 50 -45 65 -36 79 9 14 3 23 -34 54 -24 20 -44 44 -44 52 0 11 3 12 13
4 6 -6 24 -19 39 -28z m-1658 4 c-6 -15 -24 -23 -24 -11 0 8 24 34 28 30 1 -1
0 -10 -4 -19z m-432 -166 c35 -98 23 -222 -22 -234 -70 -20 -77 -18 -94 18
-21 45 -21 46 13 94 28 38 39 79 40 155 1 23 5 28 23 25 16 -2 26 -17 40 -58z
m-1516 33 c16 -22 18 -53 3 -53 -6 0 -9 6 -6 13 4 10 -1 13 -17 10 -13 -3 -28
2 -35 11 -9 11 -10 16 -2 16 6 0 11 -4 11 -10 0 -13 27 -13 35 0 3 6 -4 14
-17 19 -19 8 -20 10 -4 10 10 1 25 -7 32 -16z m1631 -51 c18 -24 38 -62 45
-85 16 -54 14 -152 -3 -200 -11 -30 -20 -38 -48 -43 -27 -5 -37 -3 -48 11 -19
26 -16 45 12 101 28 55 27 85 -6 183 -11 30 -19 61 -19 68 0 26 34 9 67 -35z
m-616 -3 c17 -9 39 -71 39 -111 0 -32 -36 -78 -61 -78 -36 0 -96 31 -108 56
-24 53 -6 119 39 141 24 12 58 9 91 -8z m-445 -36 c-3 -3 4 -13 15 -22 16 -13
21 -33 26 -103 4 -66 3 -88 -6 -88 -7 0 -10 -4 -7 -9 3 -5 1 -23 -6 -41 l-11
-32 -14 38 c-7 22 -20 70 -29 109 -8 38 -19 74 -24 79 -6 6 -10 23 -10 38 0
21 6 31 23 37 21 8 53 3 43 -6z m1265 -70 c74 -71 115 -142 122 -207 5 -54
-15 -86 -52 -86 -26 0 -69 58 -87 115 -7 25 -22 59 -34 75 -41 57 -90 152 -84
162 15 25 75 -2 135 -59z m199 57 c0 -5 -4 -10 -10 -10 -5 0 -10 5 -10 10 0 6
5 10 10 10 6 0 10 -4 10 -10z m-1619 -27 c40 -44 87 -160 93 -230 8 -83 -11
-84 -44 -2 -13 33 -44 90 -68 126 -24 37 -46 81 -49 100 -5 30 -3 33 19 33 14
0 35 -12 49 -27z m-317 -17 c29 -26 34 -46 10 -46 -8 0 -12 -5 -8 -11 3 -6 -6
-3 -20 6 -19 13 -24 21 -17 28 8 8 6 16 -6 29 -15 16 -15 18 0 18 9 0 27 -11
41 -24z m2032 -65 c37 -29 63 -59 70 -81 31 -86 49 -156 46 -173 -5 -27 -72
-57 -99 -44 -13 5 -23 16 -23 22 0 7 -7 16 -15 19 -24 9 -44 65 -35 98 7 24 3
35 -31 79 -26 31 -57 57 -83 69 -70 30 -69 58 4 70 54 9 103 -8 166 -59z
m-1362 43 c38 -38 -1 -120 -75 -159 -24 -13 -28 -12 -44 5 -17 19 -17 21 9 60
17 26 25 48 21 61 -4 11 -2 19 5 19 6 0 18 7 26 15 20 19 39 19 58 -1z m1436
-45 c0 -10 -27 -19 -34 -12 -12 12 -5 22 14 20 11 -1 20 -4 20 -8z m674 -34
c8 -8 21 -15 30 -15 8 0 20 -9 26 -19 13 -25 13 -61 0 -61 -5 0 -10 -7 -10
-15 0 -27 -38 -38 -74 -21 -73 35 -109 99 -74 134 17 17 84 15 102 -3z m-2502
-100 c67 -55 137 -162 122 -186 -3 -5 -1 -9 4 -9 6 0 12 -7 16 -15 4 -12 2
-13 -13 -6 -17 10 -48 41 -39 41 6 0 -139 146 -186 187 -20 18 -36 37 -36 43
0 15 95 -24 132 -55z m-242 25 c0 -5 -2 -10 -4 -10 -3 0 -8 5 -11 10 -3 6 -1
10 4 10 6 0 11 -4 11 -10z m3983 -84 c40 -17 87 -69 103 -116 7 -19 10 -37 8
-39 -5 -5 -73 41 -107 74 -26 25 -47 63 -47 86 0 12 5 12 43 -5z m-883 -46
c27 -14 61 -75 54 -95 -5 -13 -13 -15 -33 -10 -52 15 -100 10 -128 -13 -16
-12 -48 -32 -73 -43 -24 -11 -51 -27 -60 -35 -25 -25 -121 -94 -131 -94 -11 0
-12 -3 7 76 19 83 27 98 72 138 19 17 40 36 46 41 11 10 50 30 76 38 28 10
151 7 170 -3z m-2851 -66 c55 -32 111 -83 111 -101 0 -7 5 -13 11 -13 5 0 7
-5 3 -12 -6 -9 -9 -9 -12 0 -2 7 -8 10 -12 7 -5 -3 -19 4 -30 15 -11 11 -33
23 -48 26 -19 4 -28 12 -28 25 0 20 11 25 21 9 3 -5 14 -10 23 -10 9 1 -13 17
-50 36 -38 19 -68 36 -68 39 0 13 38 3 79 -21z m1997 -5 c6 -5 16 -26 24 -48
17 -52 -1 -88 -58 -118 -39 -21 -97 -28 -86 -12 2 4 -7 27 -21 53 -33 62 -26
101 21 118 19 7 34 16 34 20 0 10 70 -1 86 -13z m-722 -35 c38 -38 37 -102 -3
-146 -24 -27 -35 -32 -76 -32 -60 -1 -84 26 -92 105 -5 52 -4 57 22 77 41 33
114 30 149 -4z m1796 -82 c113 -19 153 -35 178 -72 28 -42 26 -86 -3 -84 -11
1 -56 9 -100 18 -44 9 -136 19 -205 22 -112 6 -131 4 -185 -15 -105 -38 -99
-39 -73 5 12 22 26 41 30 42 4 2 8 10 8 18 0 8 7 17 15 20 8 4 15 12 15 19 0
38 166 52 320 27z m-2926 -28 c3 -8 2 -12 -4 -9 -6 3 -10 10 -10 16 0 14 7 11
14 -7z m-117 -10 c-3 -3 -12 -4 -19 -1 -8 3 -5 6 6 6 11 1 17 -2 13 -5z m73
-29 c53 -27 79 -59 58 -71 -7 -4 -10 -4 -6 1 9 10 -10 47 -21 40 -5 -2 -19 4
-31 15 -13 11 -31 20 -42 20 -10 0 -18 5 -18 10 0 14 5 13 60 -15z m114 -86
c-2 -4 6 -11 18 -15 30 -9 100 -56 94 -62 -3 -3 -18 4 -33 14 -15 10 -32 17
-36 16 -5 -1 -5 3 -1 9 5 9 1 10 -14 7 -14 -4 -20 -2 -15 5 4 7 0 8 -11 4 -11
-4 -15 -3 -10 4 4 8 -1 9 -17 4 -24 -7 -24 -7 -4 9 16 13 17 15 2 10 -13 -5
-16 -2 -11 9 5 13 9 14 24 5 10 -7 17 -15 14 -19z m2931 -58 c44 -21 108 -56
142 -78 39 -26 80 -43 110 -48 27 -4 60 -14 74 -22 54 -32 78 -112 39 -133
-45 -24 -230 56 -369 159 -91 67 -170 101 -236 101 -56 0 -59 16 -4 25 25 4
37 10 29 15 -19 12 12 19 61 13 34 -3 41 -2 29 7 -30 22 44 -1 125 -39z
m-2345 -13 c-1 -67 -89 -227 -157 -288 -51 -45 -83 -65 -83 -53 0 4 -6 -1 -13
-11 -10 -14 -18 -15 -39 -7 -24 9 -26 8 -21 -7 3 -9 3 -14 -2 -10 -4 4 -15 2
-23 -5 -11 -8 -14 -8 -9 0 4 6 3 15 -3 18 -15 10 6 32 50 55 57 29 146 117
202 199 72 107 82 120 91 121 4 0 7 -6 7 -12z m-516 -53 c25 -19 9 -19 -24 0
-14 8 -19 14 -10 14 8 0 24 -6 34 -14z m64 -42 c13 -8 21 -17 19 -20 -3 -3
-12 -1 -19 3 -7 5 -16 9 -20 10 -5 1 -9 2 -10 3 -2 2 -14 5 -27 7 -37 7 -37
13 0 12 19 0 45 -7 57 -15z m4102 -78 c26 -31 -7 -13 -55 30 l-50 46 46 -30
c25 -17 52 -37 59 -46z m-3943 9 c35 -11 63 -22 63 -26 0 -6 -63 -22 -125 -31
-16 -3 -39 -1 -50 4 -18 9 -18 9 3 5 12 -2 22 0 22 4 0 5 12 11 28 13 15 3 8
4 -15 3 -24 -1 -44 3 -47 9 -2 7 7 10 24 7 15 -2 30 1 34 6 8 13 -74 25 -108
16 -16 -4 -26 -2 -26 5 0 16 124 7 197 -15z m2643 -10 c40 -2 114 -48 245
-153 44 -35 85 -65 90 -67 6 -2 29 -8 53 -14 54 -14 105 -59 127 -112 16 -42
16 -43 -6 -61 -29 -23 -113 -21 -170 5 -23 10 -92 66 -153 126 -190 181 -262
247 -287 260 -23 11 -22 12 9 6 25 -4 32 -2 32 11 0 10 4 13 12 9 7 -5 29 -9
48 -10z m634 -48 c53 -18 104 -60 123 -102 17 -34 17 -34 -17 -69 -64 -66
-136 -42 -184 60 -31 64 -31 71 -8 84 9 6 13 11 8 11 -13 0 15 30 28 30 6 0
29 -6 50 -14z m-1872 -93 c-43 -85 -55 -157 -47 -282 8 -116 5 -123 -47 -136
-24 -6 -29 -3 -39 21 -35 95 -30 211 15 310 25 55 137 176 144 156 2 -6 -10
-37 -26 -69z m138 -55 c0 -112 0 -112 44 -202 25 -50 47 -107 51 -127 6 -31 3
-38 -19 -52 -14 -9 -33 -17 -42 -17 -33 0 -99 106 -119 195 -18 75 -19 127 -2
190 15 58 63 138 77 130 6 -3 10 -56 10 -117z m-1152 76 c12 -8 20 -19 17 -24
-4 -6 -2 -10 4 -10 5 0 13 4 16 10 4 6 17 4 36 -5 32 -17 39 -28 12 -19 -14 5
-15 4 -4 -4 8 -6 20 -8 27 -5 8 3 26 -8 41 -24 33 -34 88 -125 88 -145 0 -7 3
-15 7 -19 5 -3 10 -25 14 -50 4 -33 1 -49 -11 -64 -15 -19 -16 -18 -10 26 6
49 -8 95 -45 142 -12 15 -18 27 -14 27 6 0 -4 10 -53 50 -36 30 -88 65 -98 65
-33 3 -66 19 -61 31 3 7 -5 21 -17 30 l-22 16 25 -7 c14 -4 35 -14 48 -21z
m902 2 c0 -8 -43 -80 -68 -113 -31 -41 -62 -125 -62 -166 0 -46 -21 -79 -53
-88 -24 -6 -29 -4 -38 17 -26 70 -1 159 65 231 64 70 156 140 156 119z m-974
-18 c4 -7 4 -10 -1 -6 -4 4 -15 2 -24 -5 -14 -11 -14 -10 -2 6 16 20 18 21 27
5z m3764 -8 c13 -8 12 -10 -3 -10 -16 0 -16 -2 -2 -30 19 -36 19 -46 1 -31
-17 14 -37 67 -29 75 9 8 16 7 33 -4z m92 -165 c73 -74 88 -99 29 -50 -31 27
-116 125 -108 125 3 0 38 -34 79 -75z m-3729 31 c32 -14 97 -76 79 -76 -14 0
-75 31 -94 48 -12 10 -18 11 -18 4 0 -7 6 -12 13 -12 6 -1 1 -7 -13 -15 -14
-7 -24 -16 -22 -19 1 -4 -2 -14 -7 -24 -8 -12 -10 -13 -11 -3 0 8 -2 12 -5 9
-3 -3 -2 -13 1 -23 6 -15 8 -15 20 6 12 22 13 22 14 4 0 -11 6 -32 14 -47 14
-27 12 -38 -9 -38 -14 0 -52 76 -60 123 -5 27 -2 40 12 55 22 25 43 26 86 8z
m418 -131 c64 -28 89 -66 89 -133 0 -55 -12 -67 -62 -63 -51 3 -89 24 -118 62
-21 29 -37 104 -20 94 6 -3 7 1 4 10 -16 41 45 58 107 30z m2218 -69 c35 -8
89 -27 120 -42 31 -15 65 -31 76 -36 33 -14 93 -75 121 -124 24 -41 26 -51 19
-110 -4 -37 -12 -67 -19 -70 -21 -8 -96 71 -108 113 -17 66 -119 155 -244 215
-59 28 -127 57 -153 64 -46 13 -45 13 39 9 47 -2 114 -11 149 -19z m-38 -128
c20 -16 42 -28 49 -28 16 0 98 -87 106 -112 3 -10 9 -18 13 -18 4 0 18 -19 31
-42 35 -63 40 -170 9 -237 -21 -46 -26 -51 -56 -51 -23 0 -33 5 -33 16 0 8 -7
22 -15 30 -8 9 -15 27 -15 41 0 54 -34 191 -62 252 -34 73 -99 146 -169 192
-27 17 -49 33 -49 34 0 11 161 -54 191 -77z m-1208 13 c-2 -6 4 -11 12 -11 24
0 17 -29 -9 -36 -28 -7 -66 11 -66 30 0 14 39 36 55 32 6 -2 9 -9 8 -15z
m-1051 -73 c34 -24 79 -81 108 -138 32 -62 34 -166 4 -207 -31 -42 -64 -57
-107 -49 -20 4 -42 13 -49 20 -8 7 -20 16 -28 19 -8 4 3 4 25 2 49 -7 104 19
122 55 40 80 -14 217 -100 254 -40 18 -87 9 -87 -16 0 -11 -5 -16 -11 -13 -5
4 -8 12 -6 18 2 7 0 20 -4 29 -7 12 -4 18 11 23 11 3 20 10 20 15 0 25 60 18
102 -12z m1082 -43 c83 -39 125 -125 96 -195 -49 -119 -221 -77 -237 58 -7 64
10 108 51 133 38 23 49 23 90 4z m-1354 -64 c0 -17 -13 -6 -16 13 -1 7 -5 24
-8 37 -4 18 -2 16 9 -6 8 -16 14 -36 15 -44z m875 -55 c32 -21 76 -120 44
-101 -6 4 -8 9 -5 12 3 3 -10 13 -28 23 -26 13 -46 15 -87 9 -65 -8 -96 11
-85 55 6 24 8 25 72 21 37 -3 77 -11 89 -19z m2907 13 c25 -13 57 -84 58 -126
0 -30 -3 -33 -31 -33 -39 0 -115 70 -105 97 4 9 1 20 -6 24 -9 6 -8 13 6 28
21 23 47 27 78 10z m-3512 -98 c-11 -22 -44 -28 -55 -11 -4 6 -11 8 -16 5 -5
-4 -16 1 -25 9 -8 9 -22 16 -30 16 -8 0 -14 5 -14 10 0 13 10 12 40 -5 37 -21
67 -18 87 9 16 22 18 22 21 6 2 -11 -2 -28 -8 -39z m3878 31 c27 -54 27 -54
-2 -41 -20 10 -26 19 -24 41 3 35 9 35 26 0z m-3601 -22 c20 0 82 -60 97 -94
23 -51 28 -112 11 -130 -30 -30 -14 -151 38 -281 14 -33 27 -79 31 -103 l6
-43 -25 17 c-24 16 -27 20 -29 47 -1 6 -8 20 -17 30 -9 9 -22 30 -30 45 -7 15
-21 35 -31 45 -10 10 -16 22 -13 28 4 5 2 9 -3 9 -10 0 -92 132 -96 153 -6 30
-30 103 -38 113 -14 19 -20 98 -9 127 12 30 45 49 76 42 11 -3 25 -5 32 -5z
m342 -46 c34 -7 81 -45 81 -67 0 -12 -9 -12 -57 1 -43 11 -62 11 -75 3 -23
-15 -71 -14 -86 1 -17 17 -15 31 4 24 14 -5 15 -4 4 9 -13 16 -8 20 40 28 42
7 56 7 89 1z m3024 -49 c31 -27 33 -40 22 -145 -6 -60 -3 -92 14 -164 12 -49
20 -91 17 -93 -2 -2 -22 31 -44 74 -22 43 -47 92 -56 108 -18 35 -21 71 -5 81
6 3 9 15 6 25 -3 11 -1 19 4 19 5 0 9 5 9 10 0 6 -6 9 -12 8 -9 -2 -14 12 -16
40 -3 33 0 42 13 42 9 0 13 5 10 10 -11 18 9 10 38 -15z m171 -97 c-3 -10 -7
-32 -9 -49 -2 -16 -7 -34 -10 -39 -3 -6 -6 -72 -7 -147 l0 -138 -24 75 c-14
41 -22 80 -20 87 3 7 1 13 -4 13 -13 0 -12 51 1 70 8 12 9 9 5 -10 -3 -14 -3
-19 0 -12 3 6 10 10 15 6 12 -7 11 0 -3 31 -10 22 -9 28 3 36 10 6 11 11 3 17
-6 4 -13 22 -16 41 -4 31 -4 32 9 16 7 -11 13 -25 13 -32 0 -7 5 -13 10 -13 7
0 7 6 0 19 -12 24 -13 31 -1 31 5 0 12 -8 14 -17 3 -10 4 -1 2 20 -3 33 -1 37
11 26 8 -7 12 -20 8 -31z m-323 15 c35 -21 59 -78 59 -141 0 -39 8 -59 45
-116 52 -80 59 -112 21 -95 -26 12 -124 128 -143 169 -22 48 -43 124 -43 155
0 50 14 56 61 28z m-2682 -19 c7 -6 -25 -30 -67 -48 -32 -14 -44 -27 -50 -49
-9 -33 -32 -49 -32 -22 0 15 -1 15 -16 1 -19 -19 -24 -19 -47 -2 -13 10 -16
22 -12 47 7 39 8 40 55 68 29 17 46 19 100 14 36 -3 67 -7 69 -9z m3088 -39
c0 -8 -4 -15 -8 -15 -11 0 -20 16 -12 24 11 11 20 7 20 -9z m-2837 -36 c0 -6
-35 -44 -77 -84 -77 -72 -78 -74 -83 -131 -5 -56 -7 -59 -33 -62 -35 -4 -52
16 -66 78 -7 33 -6 52 4 77 18 42 75 93 128 115 48 19 127 24 127 7z m341 -33
c0 -6 4 -81 7 -166 l7 -155 52 -90 c60 -105 75 -165 48 -195 -53 -59 -163 -9
-221 100 -16 30 -19 58 -19 195 l0 160 43 87 c35 72 46 85 62 81 11 -3 20 -10
21 -17z m2497 -44 c-10 -12 -10 -14 -1 -8 9 5 11 2 7 -8 -3 -9 -11 -13 -17 -9
-5 3 -7 1 -4 -4 5 -8 -18 -73 -26 -73 -1 0 -2 22 -2 49 0 34 4 47 13 44 8 -3
12 4 12 22 0 23 2 26 15 15 12 -10 13 -16 3 -28z m-2687 1 c8 -22 5 -37 -21
-89 -39 -80 -50 -169 -25 -208 27 -40 25 -110 -2 -137 -22 -22 -23 -22 -61 -5
-55 25 -72 67 -74 181 -2 82 1 94 26 137 23 39 127 148 142 148 2 0 9 -12 15
-27z m941 -25 c76 -59 133 -210 109 -288 -13 -40 -37 -72 -68 -89 -29 -15 -28
-16 -73 25 -46 42 -53 86 -20 124 11 13 20 32 20 44 -1 27 -32 96 -70 152 -16
25 -30 50 -30 56 0 20 97 3 132 -24z m1859 -59 c13 -13 19 -28 15 -42 -3 -12
-6 -68 -7 -124 -3 -207 -52 -321 -113 -264 -12 11 -36 25 -52 31 -18 6 -63 46
-104 91 -80 88 -149 131 -240 147 -40 8 -63 7 -93 -4 -21 -8 -55 -13 -75 -12
-21 0 -47 -2 -59 -6 -46 -15 -21 5 57 44 67 34 89 40 140 40 102 0 214 -57
270 -138 18 -26 44 -59 58 -74 13 -14 21 -31 18 -37 -4 -7 -1 -8 8 -5 9 3 16
1 16 -5 0 -6 3 -11 8 -11 4 0 8 47 8 105 1 91 5 112 28 158 14 30 26 57 26 61
0 14 44 66 57 66 7 0 22 -9 34 -21z m-3291 -7 c0 -2 -9 -17 -21 -34 -24 -32
-25 -44 -14 -139 7 -65 7 -67 -22 -98 -17 -17 -39 -31 -50 -31 -10 0 -25 -6
-32 -12 -10 -11 -10 -8 0 15 16 35 0 56 -25 32 -14 -15 -16 -15 -16 -1 0 9 5
16 11 16 6 0 18 7 27 16 15 15 14 18 -3 30 -10 8 -22 14 -27 14 -4 0 -8 11 -8
25 0 19 -5 25 -22 25 -17 0 -19 3 -9 9 10 6 10 10 1 16 -9 6 -9 10 1 16 10 6
11 9 2 9 -7 0 -13 4 -13 10 0 5 7 7 15 4 8 -4 15 -1 15 5 0 6 7 8 15 5 8 -4
15 -1 15 4 0 6 -12 9 -27 6 -41 -8 -18 10 52 39 50 21 135 33 135 19z m1694
-50 c85 -64 132 -176 119 -285 -4 -36 -12 -52 -29 -64 -29 -19 -52 -11 -84 30
-22 27 -25 41 -25 107 0 63 -5 84 -29 130 -15 30 -39 70 -53 88 -13 17 -22 36
-18 41 9 16 64 -6 119 -47z m414 -28 c78 -25 121 -75 136 -155 6 -34 4 -37
-20 -43 -28 -7 -34 -2 -79 66 -14 20 -51 55 -83 76 -32 22 -64 47 -71 56 -12
14 -9 16 27 16 22 0 62 -7 90 -16z m1029 -6 c-3 -8 -6 -5 -6 6 -1 11 2 17 5
13 3 -3 4 -12 1 -19z m-1231 -22 c112 -53 178 -151 159 -236 -7 -31 -37 -52
-62 -43 -12 5 -50 77 -74 141 -6 18 -37 55 -68 84 -31 28 -56 54 -56 57 0 3
-4 12 -8 19 -15 23 37 13 109 -22z m864 -130 c84 -41 126 -81 161 -154 54
-115 68 -184 57 -290 -23 -221 -149 -385 -307 -399 -33 -3 -70 -3 -83 0 -32 9
-69 44 -97 92 -35 59 -42 93 -35 163 11 101 58 152 153 166 38 6 42 5 32 -8
-7 -8 -24 -17 -39 -21 -15 -3 -46 -24 -69 -46 -41 -39 -43 -43 -43 -101 0 -60
23 -119 67 -170 20 -22 70 -33 97 -20 11 5 42 17 68 27 87 31 169 143 203 279
14 60 15 77 4 133 -8 37 -29 92 -49 127 l-36 61 -44 -3 c-25 -2 -49 -9 -55
-15 -5 -7 -48 -38 -95 -69 -47 -32 -105 -71 -129 -88 -50 -34 -117 -40 -174
-17 -57 24 -92 125 -67 191 11 29 1 30 -53 8 -16 -7 -32 -12 -36 -12 -17 0
-89 -79 -113 -125 -28 -54 -53 -147 -64 -235 l-7 -55 20 22 c11 13 23 20 27
16 3 -3 6 2 6 12 0 25 57 72 106 85 33 10 47 9 77 -4 39 -16 42 -22 28 -45 -6
-9 -19 -12 -39 -8 -23 5 -49 -3 -111 -34 -45 -23 -81 -44 -81 -48 0 -4 -10
-12 -22 -18 -14 -6 -31 -31 -43 -63 -29 -75 -120 -172 -190 -201 -30 -12 -52
-26 -48 -30 5 -3 42 -16 83 -29 41 -12 91 -30 110 -40 43 -22 100 -73 100 -88
0 -7 5 -12 12 -12 22 0 -6 -16 -49 -29 -32 -9 -41 -15 -36 -28 5 -13 1 -15
-23 -10 l-29 6 30 -14 c17 -8 24 -14 17 -15 -29 -1 -50 19 -45 41 4 13 2 20
-3 16 -5 -3 -21 4 -34 15 -14 11 -19 17 -12 13 7 -4 12 0 12 10 0 11 -7 15
-22 13 -13 -2 -23 2 -23 9 0 7 -17 21 -38 32 -25 13 -34 15 -26 5 12 -15 0
-20 -16 -6 -6 5 -44 21 -85 37 -79 29 -106 45 -77 45 24 0 22 37 -3 50 -13 7
-46 9 -88 5 -77 -8 -200 14 -272 47 -65 31 -206 129 -266 185 -103 96 -121
112 -182 159 -90 71 -142 108 -185 130 -21 10 -47 27 -58 37 -11 11 -44 28
-72 38 -29 11 -38 17 -22 14 17 -3 39 -7 50 -9 11 -1 33 -8 49 -15 38 -15 44
-8 8 10 -15 8 -31 18 -35 24 -6 6 -10 5 -14 -3 -4 -10 -10 -10 -29 3 -15 9
-34 14 -47 10 -21 -6 -21 -6 -3 9 23 18 46 21 46 6 0 -6 6 -10 13 -8 20 5 167
-64 160 -75 -3 -6 -1 -7 5 -3 23 14 149 -74 283 -196 152 -138 214 -185 320
-239 59 -30 156 -47 203 -35 25 6 25 8 19 71 -13 139 48 227 197 285 47 18 90
37 96 41 20 16 145 79 157 79 29 0 103 47 154 100 56 55 123 100 151 100 7 0
31 9 54 20 22 11 44 18 47 15 4 -2 13 1 21 7 12 8 12 9 -3 4 -11 -3 -16 -2
-12 4 3 6 10 10 15 10 4 0 43 16 85 36 124 58 229 61 335 10z m-2922 -56 c-7
-10 -14 -18 -15 -16 -6 6 9 36 18 36 5 0 4 -9 -3 -20z m1712 -90 c0 -6 11 -15
24 -22 27 -11 36 -28 42 -68 7 -58 -59 -105 -132 -94 -49 7 -89 45 -81 76 3 9
0 16 -6 15 -19 -4 -19 29 0 52 30 36 153 69 153 41z m-1365 -36 c11 -5 20 -16
20 -24 0 -8 8 -16 19 -18 11 -2 16 0 12 7 -8 12 51 -6 72 -22 7 -5 15 -7 18
-4 3 2 15 -5 28 -17 12 -13 48 -31 79 -41 33 -10 54 -22 50 -28 -3 -6 -1 -7 5
-3 21 13 96 -46 215 -167 163 -166 397 -461 397 -501 0 -5 11 -32 24 -60 16
-35 25 -76 29 -130 6 -87 -5 -126 -35 -126 -11 0 -16 -4 -13 -10 3 -5 -1 -10
-9 -10 -8 0 -21 10 -27 22 -16 30 -30 42 -54 46 -11 2 -27 10 -36 18 -8 8 -20
14 -26 14 -6 0 -18 10 -27 23 -10 13 -8 5 5 -23 l22 -45 -24 26 c-48 51 -80
99 -73 111 5 7 3 8 -5 4 -16 -10 -51 21 -51 44 0 10 -7 21 -16 24 -9 4 -14 13
-10 22 3 8 2 13 -3 10 -9 -6 -34 39 -37 64 0 8 -2 37 -3 63 0 27 -5 46 -10 42
-5 -3 -13 -1 -16 5 -4 6 -1 9 7 8 7 -2 14 7 16 20 2 12 7 20 11 17 5 -2 8 5 7
18 -1 17 4 21 19 19 11 -2 17 -1 13 4 -4 4 0 13 9 19 16 12 13 18 -25 68 -23
30 -52 66 -64 80 -13 14 -43 50 -68 80 -39 47 -80 85 -80 74 0 -2 11 -17 25
-33 13 -16 41 -61 62 -101 33 -67 37 -81 37 -158 1 -72 -3 -91 -24 -130 -33
-61 -56 -60 -117 6 -53 56 -75 87 -52 73 12 -6 12 -5 1 8 -10 12 -9 18 3 28 8
7 15 24 15 39 -1 14 5 49 11 76 10 42 9 59 -5 107 -9 32 -25 66 -35 75 -43 40
-81 97 -70 103 6 5 3 9 -9 12 -12 4 -38 -6 -67 -25 -39 -25 -56 -30 -101 -29
-75 2 -123 17 -159 50 -17 15 -26 24 -21 20 14 -11 28 -10 21 2 -3 6 -1 10 5
10 7 0 10 -7 7 -14 -4 -10 2 -18 16 -22 12 -4 23 -2 25 5 2 6 14 11 27 11 l24
0 -24 26 c-19 21 -34 27 -67 27 -29 0 -36 2 -23 7 19 7 19 7 -4 19 -13 7 -40
11 -61 9 -33 -3 -37 -1 -30 13 6 10 5 20 -2 27 -17 17 37 60 80 64 36 3 106
-11 147 -28z m2851 -12 c6 -4 13 -16 17 -27 3 -11 18 -54 32 -95 17 -47 28
-97 28 -135 1 -67 -21 -185 -34 -185 -5 0 -9 -9 -9 -21 0 -13 -4 -18 -12 -13
-6 4 -8 3 -4 -4 6 -10 -27 -80 -43 -92 -3 -3 -12 -18 -19 -34 -10 -23 -15 -26
-27 -16 -8 7 -12 17 -9 22 3 5 6 24 6 43 0 25 4 32 14 28 10 -4 14 4 14 27 0
24 -4 31 -15 26 -24 -9 -18 33 11 76 15 21 31 38 36 38 5 0 7 4 4 9 -3 5 1 26
10 47 15 35 15 48 -1 154 -9 63 -19 125 -22 138 -5 22 3 28 23 14z m100 -57
c1 -8 -2 -15 -6 -15 -5 0 -8 9 -7 20 1 21 10 18 13 -5z m-2058 -14 c23 -12 52
-60 52 -86 0 -9 -9 -15 -26 -15 -14 0 -23 -4 -19 -9 7 -13 -59 -31 -112 -31
-44 0 -93 17 -93 32 0 5 -4 7 -10 3 -10 -6 -50 13 -62 30 -16 22 -6 27 52 23
33 -1 60 1 60 5 0 4 8 4 17 -1 19 -11 66 5 57 20 -3 5 -2 7 3 6 14 -4 53 13
53 22 0 6 -13 8 -30 6 -16 -2 -27 0 -24 5 6 11 53 5 82 -10z m-1054 -10 c3 -4
-6 -6 -19 -3 -14 2 -25 6 -25 8 0 8 39 4 44 -5z m3184 -16 c-3 -3 -9 2 -12 12
-6 14 -5 15 5 6 7 -7 10 -15 7 -18z m-48 -8 c0 -13 5 -28 12 -35 12 -12 18
-62 8 -62 -17 0 -39 30 -53 73 l-16 47 25 0 c18 0 24 -5 24 -23z m-1758 -98
c36 -29 39 -35 36 -73 -2 -22 -7 -39 -11 -36 -4 3 -17 -9 -28 -27 -25 -39
-109 -83 -159 -83 -55 0 -187 51 -210 81 -3 3 -15 11 -27 18 -13 6 -23 21 -23
33 0 19 3 20 58 13 100 -14 151 -1 214 53 71 62 94 65 150 21z m-981 -77 c11
-26 29 -63 40 -83 24 -46 26 -131 3 -150 -26 -21 -65 -18 -77 8 -5 12 -14 20
-18 17 -4 -2 -13 5 -20 17 -11 21 -9 66 7 160 4 24 1 47 -10 66 -19 38 -12 46
26 27 19 -10 37 -32 49 -62z m2759 38 c0 -5 -5 -10 -11 -10 -5 0 -7 5 -4 10 3
6 8 10 11 10 2 0 4 -4 4 -10z m-3110 -64 c0 -2 -8 -10 -17 -17 -16 -13 -17
-12 -4 4 13 16 21 21 21 13z m41 -63 c13 4 27 -5 43 -26 33 -45 42 -62 28 -53
-7 4 -12 3 -12 -2 0 -6 7 -13 16 -16 9 -4 14 -9 10 -13 -7 -7 -46 26 -46 39 0
5 5 6 10 3 18 -11 11 1 -12 21 -12 10 -18 13 -14 7 4 -7 2 -13 -3 -13 -6 0
-11 7 -11 15 0 8 5 15 11 15 5 0 7 5 3 11 -5 8 -10 6 -16 -5 -8 -14 -12 -12
-34 13 -13 16 -24 33 -24 37 0 5 7 -2 16 -15 11 -15 23 -21 35 -18z m2199 -23
c23 -23 19 -40 -11 -40 -13 0 -18 4 -13 12 4 7 3 8 -5 4 -9 -6 -9 -11 0 -22
11 -13 9 -14 -14 -3 -33 15 -76 6 -155 -31 -35 -16 -66 -30 -68 -30 -3 0 3 13
12 29 17 29 88 80 128 93 47 14 106 8 126 -12z m-51 -164 c12 -11 19 -21 16
-24 -2 -3 2 -10 11 -16 13 -10 -91 -12 -280 -6 -4 0 2 8 15 19 13 10 30 16 38
13 8 -3 12 -1 8 5 -8 12 38 27 53 18 6 -4 10 -2 10 3 0 5 24 8 54 8 38 -1 60
-7 75 -20z m697 -81 c13 -13 13 -15 1 -15 -8 0 -17 7 -21 15 -3 8 -3 15 0 15
3 0 12 -7 20 -15z m-773 -47 c14 -10 31 -27 37 -38 7 -14 21 -20 44 -20 34 0
86 -32 86 -54 0 -18 -38 -46 -63 -46 -26 0 -42 -10 -42 -27 0 -15 -75 -74 -86
-67 -5 3 -9 -1 -9 -8 0 -8 -3 -9 -8 -3 -9 12 -36 19 -28 7 6 -11 -21 -52 -35
-52 -5 0 -7 10 -4 23 9 33 13 60 14 79 1 9 21 38 46 65 42 44 59 73 34 58 -5
-4 -31 2 -57 13 -26 11 -89 26 -139 33 -54 7 -88 16 -80 21 8 5 3 8 -13 8
l-25 0 29 18 c24 14 46 16 150 12 93 -4 128 -9 149 -22z m-843 -14 c30 -8 80
-19 110 -24 71 -12 169 -57 248 -115 100 -73 130 -142 93 -212 -41 -77 -88
-110 -140 -98 -17 4 -31 11 -31 16 0 5 -8 9 -19 9 -10 0 -25 8 -32 17 -12 14
-12 16 1 9 12 -6 11 -4 -1 6 -9 7 -14 19 -12 26 3 6 0 12 -6 12 -6 0 -7 14 -4
34 11 71 -69 151 -229 231 -141 69 -125 132 22 89z m1259 -7 c13 -6 22 -15 20
-18 -2 -3 2 -13 10 -23 12 -14 11 -20 -10 -42 -26 -28 -128 -78 -196 -97 -23
-6 -40 -14 -37 -18 6 -10 -33 -22 -46 -14 -22 14 -7 51 47 117 79 98 148 128
212 95z m-1346 -63 c133 -88 257 -263 257 -362 0 -38 -16 -73 -39 -87 -22 -13
-81 -16 -81 -4 0 5 10 10 23 10 16 1 18 2 5 6 -10 2 -18 12 -18 21 -1 43 -54
72 -91 50 -44 -25 -51 -35 -26 -42 32 -8 76 -46 54 -46 -10 0 -17 5 -17 11 0
5 -5 7 -10 4 -6 -3 -13 0 -16 9 -3 8 -12 12 -19 10 -7 -3 -23 9 -35 26 -24 34
-23 55 4 127 15 40 14 45 -6 103 -13 34 -41 84 -65 112 -43 50 -54 83 -30 91
19 6 67 -10 110 -39z m1604 24 c17 -28 11 -49 -20 -80 -41 -41 -74 -61 -82
-48 -3 5 -14 8 -25 7 -10 -1 -17 -5 -14 -9 3 -4 12 -4 22 -1 13 4 13 2 -3 -10
-22 -18 -39 -22 -30 -8 3 6 -3 15 -14 20 -27 15 -31 14 -24 -5 4 -12 0 -14
-23 -9 -22 5 -25 4 -14 -4 18 -13 1 -15 -18 -2 -11 6 -10 11 3 25 9 9 22 16
29 16 7 0 44 27 81 60 69 61 113 77 132 48z m165 -52 c15 -22 8 -74 -15 -107
-12 -19 -47 -49 -77 -67 -30 -18 -54 -38 -52 -43 1 -6 -6 -8 -18 -4 -22 7 -26
-5 -8 -23 9 -9 9 -12 0 -12 -7 0 -12 5 -12 11 0 5 -5 7 -12 3 -8 -5 -1 -12 21
-21 41 -17 39 -46 -4 -52 -26 -3 -28 -4 -10 -11 15 -7 10 -9 -22 -9 -25 -1
-48 5 -57 15 -9 8 -16 16 -16 17 0 1 16 3 35 4 20 1 33 -3 30 -8 -4 -5 -14 -9
-23 -10 -9 0 -12 -3 -6 -5 6 -3 23 2 38 10 26 13 27 14 7 21 -12 3 -21 11 -21
16 0 6 9 5 23 -2 16 -8 19 -8 11 0 -6 6 -20 13 -32 16 -16 3 -19 0 -15 -13 4
-12 3 -14 -5 -7 -6 6 -13 28 -16 49 -3 23 -13 44 -25 52 -24 17 -17 44 10 44
47 0 119 49 161 108 30 44 89 59 110 28z m-2467 -46 c4 -6 10 -8 15 -5 4 3 18
-3 31 -13 15 -13 19 -21 10 -26 -6 -4 -10 -4 -9 1 2 4 -1 9 -6 10 -5 1 -13 7
-17 15 -7 10 -9 10 -9 -2 -1 -13 -2 -13 -13 1 -7 9 -19 18 -27 22 -12 4 -12 6
2 6 9 1 20 -4 23 -9z m2025 -59 c-9 -17 -13 -19 -24 -9 -11 10 -9 15 8 24 27
14 30 11 16 -15z m-1916 -32 c-2 -4 3 -12 11 -19 16 -13 20 -30 8 -30 -5 0
-18 18 -31 41 -22 37 -22 39 -3 27 11 -6 18 -15 15 -19z m1946 27 c0 -3 -4 -8
-10 -11 -5 -3 -10 -1 -10 4 0 6 5 11 10 11 6 0 10 -2 10 -4z m-138 -55 c-1 -7
2 -10 8 -6 6 3 8 11 4 16 -8 13 45 1 74 -18 12 -7 28 -11 34 -7 7 4 8 3 4 -4
-5 -8 1 -12 18 -12 63 0 91 -141 46 -230 -43 -86 -141 -152 -243 -164 -61 -8
-140 0 -132 14 2 4 22 4 43 0 41 -7 165 14 170 29 2 5 26 32 54 60 60 61 79
107 66 164 -5 23 -10 43 -12 44 -6 6 -36 -9 -36 -18 0 -14 20 -11 20 4 0 6 5
4 11 -6 8 -14 8 -22 -1 -30 -10 -9 -14 -9 -17 1 -3 6 -12 12 -20 12 -8 0 -13
6 -10 13 3 8 -3 14 -15 14 -13 1 -18 -3 -14 -12 3 -8 0 -18 -7 -22 -20 -13
-57 -10 -57 5 0 7 6 10 13 7 6 -4 4 0 -5 8 -12 10 -18 29 -18 58 0 32 -3 40
-10 29 -5 -8 -10 -30 -10 -48 0 -29 -2 -32 -19 -22 -24 12 -51 13 -51 1 0 -5
9 -7 20 -4 12 3 20 0 20 -6 0 -7 -4 -10 -9 -7 -13 8 -42 -4 -35 -15 3 -5 -1
-6 -9 -3 -8 3 -18 1 -22 -5 -9 -15 -62 -14 -77 2 -13 15 -48 11 -48 -4 0 -5
-10 -9 -21 -9 -19 0 -21 4 -16 33 3 17 9 41 13 52 7 19 6 19 -12 4 -22 -19
-105 -59 -121 -59 -6 0 -16 -12 -21 -27 -6 -16 -11 -22 -11 -15 -1 8 -17 12
-48 10 l-48 -1 45 -6 c44 -6 44 -6 17 -18 -16 -8 -27 -9 -27 -3 0 6 -9 10 -19
10 -11 0 -23 5 -26 10 -11 18 -27 11 -20 -9 3 -11 0 -23 -6 -27 -7 -4 -9 -3
-6 2 3 6 2 16 -4 24 -7 12 -9 12 -9 -3 0 -14 -5 -16 -27 -11 -37 9 -45 18 -10
12 18 -4 27 -1 27 8 0 8 7 14 15 14 15 0 19 11 16 38 -1 8 7 11 23 8 15 -3 26
0 26 6 0 6 8 7 18 3 9 -3 21 -7 27 -8 13 -3 16 64 4 79 -6 8 -4 14 5 17 9 4
18 1 22 -5 4 -7 3 -8 -4 -4 -7 4 -12 2 -12 -3 0 -6 8 -11 18 -12 9 0 12 -3 6
-5 -9 -4 -9 -45 0 -44 0 0 32 11 70 25 38 13 73 22 78 19 4 -3 8 0 8 5 0 6 3
10 8 9 4 -1 22 6 40 15 18 10 41 17 50 16 9 -2 26 0 37 4 11 4 47 9 79 12 33
3 62 7 64 10 9 9 27 -2 24 -14z m-527 -21 c-19 -8 -19 -9 -1 -9 19 -1 18 -2
-2 -24 -12 -13 -22 -31 -22 -40 0 -10 -8 -17 -21 -17 -18 0 -20 5 -17 42 2 24
9 43 17 46 9 3 11 0 6 -9 -4 -8 1 -6 11 4 10 9 25 17 34 16 10 0 9 -3 -5 -9z
m1485 -28 c0 -2 -4 -1 -9 2 -10 6 -25 -24 -16 -32 3 -3 5 0 5 6 0 7 7 12 16
12 9 0 14 -6 12 -12 -3 -7 4 -22 14 -33 10 -11 17 -29 16 -40 -4 -25 -40 -32
-58 -10 -15 18 -66 20 -73 3 -4 -10 -7 -10 -18 0 -11 10 -11 12 0 12 8 0 11 6
7 16 -4 9 -2 13 5 8 8 -4 9 1 4 17 -5 19 -4 21 4 9 9 -12 11 -10 11 13 0 15 5
27 12 27 6 0 8 3 5 7 -4 3 1 11 10 18 13 10 20 9 35 -4 10 -8 18 -17 18 -19z
m-354 12 c10 -8 14 -13 8 -10 -8 4 -10 -11 -7 -48 2 -37 -1 -57 -11 -65 -17
-14 -46 -4 -46 17 0 13 3 12 16 -4 15 -17 15 -17 0 8 -16 27 -22 99 -9 111 11
11 28 8 49 -9z m83 7 c9 -6 11 -21 7 -52 -4 -33 -3 -39 4 -24 8 15 9 12 4 -15
-4 -19 -11 -38 -17 -42 -16 -10 -22 -1 -11 15 5 7 1 4 -10 -7 -18 -21 -18 -21
-15 4 4 32 -7 51 -26 43 -11 -4 -13 -1 -9 10 3 9 12 13 20 10 10 -4 14 3 14
21 0 14 6 26 13 26 8 0 7 4 -3 10 -13 9 -13 10 0 10 8 0 21 -4 29 -9z m-1189
-61 c0 -5 -5 -10 -11 -10 -5 0 -7 5 -4 10 3 6 8 10 11 10 2 0 4 -4 4 -10z"/>
<path d="M2609 9721 c7 -5 11 -14 7 -20 -9 -13 90 -64 107 -55 7 4 9 4 5 -1
-10 -11 11 -37 24 -29 5 3 12 -3 15 -15 4 -17 10 -19 37 -14 17 3 32 9 34 14
2 4 13 5 25 2 43 -9 -70 85 -129 106 -54 21 -154 30 -125 12z"/>
<path d="M3440 9529 c0 -5 14 -16 31 -24 29 -16 30 -16 20 3 -11 20 -51 37
-51 21z"/>
<path d="M2870 9403 c-8 -4 -20 -11 -25 -17 -14 -14 -36 -76 -28 -76 21 0 73
26 73 37 0 9 9 9 41 -2 54 -20 66 -19 46 3 -8 9 -15 22 -15 27 2 22 -59 41
-92 28z"/>
<path d="M2958 9287 c-7 -7 -29 -22 -48 -35 l-35 -22 35 -1 c30 -1 26 -3 -22
-13 -31 -6 -60 -14 -64 -18 -14 -15 -48 -8 -71 14 -22 21 -23 21 -43 3 -20
-18 -28 -41 -11 -30 6 3 26 -9 47 -27 31 -28 44 -32 95 -34 33 0 62 -4 66 -8
3 -3 16 -6 28 -6 12 0 33 -9 47 -19 13 -11 36 -23 49 -26 22 -5 29 1 57 43 18
28 32 54 32 60 0 5 -23 37 -52 71 -52 62 -82 75 -110 48z m26 -12 c3 -8 1 -15
-4 -15 -6 0 -10 7 -10 15 0 8 2 15 4 15 2 0 6 -7 10 -15z m76 -62 c29 -24 31
-28 14 -34 -29 -12 -82 -10 -90 2 -4 8 -10 6 -17 -6 -7 -12 -5 -20 4 -26 8 -5
9 -9 3 -9 -5 0 -18 6 -29 13 -17 13 -17 15 2 34 12 12 30 24 42 28 12 3 21 11
21 16 0 16 17 10 50 -18z"/>
<path d="M3203 9207 c20 -21 38 -37 40 -37 1 0 3 9 3 19 0 11 -4 17 -8 15 -5
-3 -23 5 -41 17 -31 21 -31 21 6 -14z"/>
<path d="M1233 9089 c-2 -23 3 -25 10 -4 4 8 3 16 -1 19 -4 3 -9 -4 -9 -15z"/>
<path d="M1253 8983 c9 -2 23 -2 30 0 6 3 -1 5 -18 5 -16 0 -22 -2 -12 -5z"/>
<path d="M3430 8976 c0 -2 8 -10 18 -17 15 -13 16 -12 3 4 -13 16 -21 21 -21
13z"/>
<path d="M3484 8931 c21 -23 26 -26 26 -11 0 5 -10 15 -22 21 -23 12 -23 12
-4 -10z"/>
<path d="M3654 8765 c1 -8 6 -18 11 -22 4 -4 5 -3 2 4 -4 6 -2 13 5 15 8 3 6
6 -4 10 -10 4 -15 2 -14 -7z"/>
<path d="M3680 8726 c0 -2 7 -9 15 -16 13 -11 14 -10 9 4 -5 14 -24 23 -24 12z"/>
<path d="M3740 8621 c0 -6 4 -13 10 -16 6 -3 7 1 4 9 -7 18 -14 21 -14 7z"/>
<path d="M3741 8571 c-12 -7 -11 -12 1 -29 18 -26 43 -14 33 17 -7 23 -13 25
-34 12z m29 -21 c0 -5 -4 -10 -10 -10 -5 0 -10 5 -10 10 0 6 5 10 10 10 6 0
10 -4 10 -10z"/>
<path d="M3720 8480 c0 -5 7 -7 15 -4 8 4 15 8 15 10 0 2 -7 4 -15 4 -8 0 -15
-4 -15 -10z"/>
<path d="M3801 8420 c0 -14 4 -32 9 -40 8 -12 10 -12 9 5 0 11 -4 29 -9 40 -8
18 -9 18 -9 -5z"/>
<path d="M3791 7993 c-1 -23 4 -45 9 -48 12 -7 12 29 0 65 -7 21 -8 19 -9 -17z"/>
<path d="M4230 7994 c0 -5 15 -18 33 -29 46 -28 46 -28 43 -8 -2 11 -10 17
-21 15 -11 -2 -14 1 -9 9 4 8 3 10 -5 5 -6 -4 -18 -2 -26 4 -8 7 -15 9 -15 4z"/>
<path d="M3796 7903 c3 -16 17 -52 31 -81 30 -63 103 -123 185 -151 31 -11 66
-24 77 -31 22 -11 22 -11 6 26 -8 20 -13 39 -10 42 9 9 -27 42 -38 35 -5 -3
-7 -2 -4 4 9 14 -46 61 -97 83 -24 10 -58 31 -77 47 -19 15 -44 34 -57 41 -21
12 -22 11 -16 -15z"/>
<path d="M4150 7775 c0 -2 20 -18 45 -35 28 -19 43 -36 39 -43 -4 -7 -3 -9 1
-4 5 4 17 -1 27 -10 14 -12 17 -13 13 -2 -4 8 -31 33 -60 57 -51 40 -65 48
-65 37z"/>
<path d="M2980 7605 c13 -14 26 -25 28 -25 3 0 -5 11 -18 25 -13 14 -26 25
-28 25 -3 0 5 -11 18 -25z"/>
<path d="M4163 7559 c0 -8 -4 -25 -7 -39 -6 -22 2 -35 51 -85 63 -65 98 -95
112 -95 4 0 19 -8 32 -19 13 -10 42 -21 64 -25 22 -4 52 -9 68 -12 43 -9 31 9
-21 30 -62 25 -154 99 -234 187 -36 40 -65 66 -65 58z"/>
<path d="M4558 7273 c7 -3 16 -2 19 1 4 3 -2 6 -13 5 -11 0 -14 -3 -6 -6z"/>
<path d="M7283 10362 c-1 -22 0 -24 9 -8 6 10 6 22 2 26 -5 5 -10 -3 -11 -18z"/>
<path d="M7332 10350 c0 -14 2 -19 5 -12 2 6 2 18 0 25 -3 6 -5 1 -5 -13z"/>
<path d="M7553 10043 c-15 -5 -17 -23 -4 -23 5 0 11 7 15 15 3 8 4 15 3 14 -1
0 -8 -3 -14 -6z"/>
<path d="M7520 9975 c0 -8 5 -15 10 -15 6 0 10 7 10 15 0 8 -4 15 -10 15 -5 0
-10 -7 -10 -15z"/>
<path d="M7560 9975 c0 -8 7 -15 15 -15 9 0 12 6 9 15 -4 8 -10 15 -15 15 -5
0 -9 -7 -9 -15z"/>
<path d="M7707 9906 c-4 -10 -5 -21 -2 -24 9 -9 17 6 13 25 -3 17 -4 17 -11
-1z"/>
<path d="M7809 9716 c-14 -9 -14 -13 -3 -24 19 -18 34 -15 34 7 0 26 -11 32
-31 17z"/>
<path d="M6390 7085 c13 -14 28 -25 33 -25 6 0 0 11 -13 25 -13 14 -28 25 -33
25 -6 0 0 -11 13 -25z"/>
<path d="M6470 6990 c0 -5 -6 -10 -12 -10 -17 0 -58 -64 -58 -90 0 -67 79
-164 140 -174 82 -13 108 34 63 115 -20 37 -34 52 -55 56 -30 6 -37 18 -15 26
16 6 30 -5 85 -65 36 -41 42 -54 42 -92 0 -36 -5 -49 -25 -64 -14 -11 -25 -25
-25 -31 0 -6 -6 -11 -12 -12 -24 -1 27 -18 57 -18 47 -1 58 12 66 81 7 57 5
68 -18 115 -31 63 -80 112 -118 119 -16 3 -41 16 -57 29 -30 26 -58 33 -58 15z
m248 -235 c-3 -3 -9 2 -12 12 -6 14 -5 15 5 6 7 -7 10 -15 7 -18z"/>
<path d="M7277 5955 c3 -9 8 -14 10 -11 3 3 22 -10 41 -29 20 -19 38 -32 41
-30 5 5 -80 84 -91 85 -4 0 -5 -7 -1 -15z"/>
<path d="M7400 5862 c0 -4 26 -31 59 -59 72 -64 161 -196 192 -284 l23 -66
-28 -99 c-29 -101 -59 -175 -85 -206 -26 -33 7 -19 50 19 68 62 94 131 91 243
-2 63 -12 97 -53 186 -10 23 -19 46 -19 51 0 23 -90 130 -141 169 -56 42 -89
59 -89 46z"/>
<path d="M3831 5804 c0 -11 3 -14 6 -6 3 7 2 16 -1 19 -3 4 -6 -2 -5 -13z"/>
<path d="M3856 5797 c3 -10 9 -15 12 -12 3 3 0 11 -7 18 -10 9 -11 8 -5 -6z"/>
<path d="M7425 5020 c-3 -5 -1 -10 4 -10 6 0 11 5 11 10 0 6 -2 10 -4 10 -3 0
-8 -4 -11 -10z"/>
<path d="M3170 6641 c0 -5 7 -12 16 -15 14 -5 15 -4 4 9 -14 17 -20 19 -20 6z"/>
<path d="M3555 6041 c-3 -5 -2 -12 3 -15 5 -3 9 1 9 9 0 17 -3 19 -12 6z"/>
<path d="M3993 6075 c0 -8 4 -12 9 -9 5 3 6 10 3 15 -9 13 -12 11 -12 -6z"/>
<path d="M3965 5890 c-3 -5 -1 -10 4 -10 6 0 11 5 11 10 0 6 -2 10 -4 10 -3 0
-8 -4 -11 -10z"/>
<path d="M4989 5353 c12 -23 29 -38 37 -31 2 3 -8 15 -22 29 -25 23 -26 23
-15 2z"/>
<path d="M4605 5282 c-11 -4 -21 -17 -22 -29 -4 -36 24 -26 46 15 12 23 10 24
-24 14z"/>
<path d="M5050 5220 c0 -5 5 -10 10 -10 6 0 10 5 10 10 0 6 -4 10 -10 10 -5 0
-10 -4 -10 -10z"/>
<path d="M7983 5044 c-3 -8 1 -22 9 -30 13 -13 14 -11 10 16 -5 34 -10 37 -19
14z"/>
<path d="M4983 5029 c-2 -23 3 -25 10 -4 4 8 3 16 -1 19 -4 3 -9 -4 -9 -15z"/>
<path d="M8401 4844 c0 -11 3 -14 6 -6 3 7 2 16 -1 19 -3 4 -6 -2 -5 -13z"/>
<path d="M4922 4760 c0 -14 2 -19 5 -12 2 6 2 18 0 25 -3 6 -5 1 -5 -13z"/>
<path d="M8095 4000 c3 -5 8 -10 11 -10 2 0 4 5 4 10 0 6 -5 10 -11 10 -5 0
-7 -4 -4 -10z"/>
<path d="M6144 4335 c-10 -8 -14 -14 -9 -15 15 0 40 18 34 24 -3 3 -14 -1 -25
-9z"/>
<path d="M8271 4274 c0 -11 3 -14 6 -6 3 7 2 16 -1 19 -3 4 -6 -2 -5 -13z"/>
<path d="M7280 3605 c7 -8 16 -15 21 -15 5 0 6 7 3 15 -4 8 -13 15 -21 15 -13
0 -13 -3 -3 -15z"/>
<path d="M7247 3580 c-19 -22 -22 -35 -7 -25 6 3 10 -1 10 -9 0 -22 13 -20 28
5 9 14 10 19 2 14 -9 -5 -10 -1 -5 14 8 27 -5 27 -28 1z"/>
<path d="M7570 3665 c-6 -8 -10 -21 -8 -30 2 -14 7 -13 26 8 19 20 20 25 8 30
-8 3 -20 0 -26 -8z"/>
<path d="M7516 3595 c4 -8 8 -15 10 -15 2 0 4 7 4 15 0 8 -4 15 -10 15 -5 0
-7 -7 -4 -15z"/>
<path d="M7923 3425 c0 -7 6 -11 14 -8 7 3 13 6 13 8 0 2 -6 5 -13 8 -8 3 -14
-1 -14 -8z"/>
<path d="M7970 3355 c0 -8 5 -15 10 -15 6 0 10 7 10 15 0 8 -4 15 -10 15 -5 0
-10 -7 -10 -15z"/>
<path d="M7438 3413 c-34 -9 -18 -18 35 -20 47 -1 50 0 33 13 -20 14 -36 16
-68 7z"/>
<path d="M7665 3410 c3 -5 11 -10 16 -10 6 0 7 5 4 10 -3 6 -11 10 -16 10 -6
0 -7 -4 -4 -10z"/>
<path d="M7330 3370 c0 -5 5 -10 11 -10 5 0 7 5 4 10 -3 6 -8 10 -11 10 -2 0
-4 -4 -4 -10z"/>
<path d="M7445 3350 c3 -5 11 -10 16 -10 6 0 7 5 4 10 -3 6 -11 10 -16 10 -6
0 -7 -4 -4 -10z"/>
<path d="M8485 3410 c-3 -5 1 -10 10 -10 9 0 13 5 10 10 -3 6 -8 10 -10 10 -2
0 -7 -4 -10 -10z"/>
<path d="M8470 3371 c-8 -15 -7 -19 6 -17 22 3 40 36 20 36 -8 0 -20 -9 -26
-19z"/>
<path d="M8551 3354 c14 -17 32 -19 27 -2 -2 6 -12 12 -22 14 -14 2 -15 0 -5
-12z"/>
<path d="M8159 3442 c8 -6 11 -18 6 -33 -6 -19 -5 -21 5 -13 15 15 9 46 -10
51 -12 4 -12 3 -1 -5z"/>
</g>
</svg>
